<svg version="1.1" viewBox="0.0 0.0 510.0 371.0" fill="none" stroke="none" stroke-linecap="square" stroke-miterlimit="10" width="510" height="371" xmlns:xlink="http://www.w3.org/1999/xlink" xmlns="http://www.w3.org/2000/svg"><path fill="#ffffff" d="M0 0L510.0 0L510.0 371.0L0 371.0L0 0Z" fill-rule="nonzero"/><path fill="#4285f4" d="M255.0 54.916668C305.09958 54.916668 351.83444 80.13343 379.34027 122.00704C406.8461 163.88065 411.42825 216.78658 391.5313 262.7657L323.26566 233.22452C333.2141 210.23495 330.92303 183.78198 317.17014 162.84518C303.41724 141.90839 280.0498 129.3 255.0 129.3Z" fill-rule="nonzero"/><path fill="#46bdc6" d="M167.55714 83.328575C192.97357 64.86246 223.58357 54.916668 255.0 54.916668L255.0 129.3C239.29178 129.3 223.98679 134.27289 211.27858 143.50595Z" fill-rule="nonzero"/><path fill="#ff6d01" d="M143.40848 105.30217C150.62747 97.11383 158.72578 89.744934 167.55714 83.328575L211.27858 143.50595C206.86288 146.71413 202.81374 150.39859 199.20424 154.49275Z" fill-rule="nonzero"/><path fill="#34a853" d="M124.63477 132.01445C129.89368 122.44853 136.18948 113.49051 143.40848 105.30217L199.20424 154.49275C195.59474 158.58691 192.44684 163.06593 189.81738 167.84889Z" fill-rule="nonzero"/><path fill="#fbbc04" d="M146.55377 305.52112C102.43496 258.53937 93.58593 188.49208 124.63477 132.01445L189.81738 167.84889C174.29297 196.0877 178.71748 231.11134 200.77689 254.60223Z" fill-rule="nonzero"/><path fill="#ea4335" d="M391.5313 262.7657C371.63434 308.74484 329.9309 341.6212 280.57733 350.23477C231.22374 358.84833 180.8493 342.04214 146.55377 305.52112L200.77689 254.60223C217.92465 272.86273 243.11188 281.26584 267.78867 276.95905C292.46545 272.65225 313.31717 256.21408 323.26566 233.22452Z" fill-rule="nonzero"/><path fill="#1a1a1a" d="M19.425 65.916664L19.425 57.322914L20.565624 57.322914L20.565624 64.90104L24.8 64.90104L24.8 65.916664L19.425 65.916664ZM26.471874 65.916664L26.471874 57.322914L29.721874 57.322914Q30.565624 57.322914 31.01875 57.40104Q31.659374 57.510414 32.08125 57.80729Q32.51875 58.104164 32.76875 58.635414Q33.034374 59.166664 33.034374 59.80729Q33.034374 60.90104 32.33125 61.666664Q31.64375 62.416664 29.815624 62.416664L27.6125 62.416664L27.6125 65.916664L26.471874 65.916664ZM27.6125 61.416664L29.83125 61.416664Q30.940624 61.416664 31.39375 61.010414Q31.8625 60.58854 31.8625 59.83854Q31.8625 59.30729 31.58125 58.93229Q31.315624 58.541664 30.878124 58.416664Q30.58125 58.33854 29.815624 58.33854L27.6125 58.33854L27.6125 61.416664Z" fill-rule="nonzero"/><path fill="#9e9e9e" d="M23.01875 82.916664L21.971874 82.916664L21.971874 76.197914Q21.58125 76.55729 20.95625 76.93229Q20.346874 77.291664 19.8625 77.46354L19.8625 76.447914Q20.7375 76.02604 21.39375 75.447914Q22.065624 74.854164 22.346874 74.291664L23.01875 74.291664L23.01875 82.916664ZM26.05 78.68229Q26.05 77.15104 26.3625 76.229164Q26.675 75.291664 27.284374 74.791664Q27.909374 74.291664 28.846874 74.291664Q29.534374 74.291664 30.05 74.572914Q30.58125 74.854164 30.925 75.385414Q31.26875 75.90104 31.45625 76.65104Q31.64375 77.40104 31.64375 78.68229Q31.64375 80.197914 31.33125 81.11979Q31.034374 82.041664 30.409374 82.55729Q29.8 83.05729 28.846874 83.05729Q27.6125 83.05729 26.89375 82.166664Q26.05 81.104164 26.05 78.68229ZM27.128124 78.68229Q27.128124 80.791664 27.628124 81.49479Q28.128124 82.197914 28.846874 82.197914Q29.58125 82.197914 30.065624 81.49479Q30.565624 80.791664 30.565624 78.68229Q30.565624 76.55729 30.065624 75.86979Q29.58125 75.166664 28.83125 75.166664Q28.1125 75.166664 27.675 75.77604Q27.128124 76.55729 27.128124 78.68229ZM33.64375 82.916664L33.64375 81.71354L34.846874 81.71354L34.846874 82.916664L33.64375 82.916664ZM36.05 78.68229Q36.05 77.15104 36.3625 76.229164Q36.675 75.291664 37.284374 74.791664Q37.909374 74.291664 38.846874 74.291664Q39.534374 74.291664 40.05 74.572914Q40.58125 74.854164 40.925 75.385414Q41.26875 75.90104 41.45625 76.65104Q41.64375 77.40104 41.64375 78.68229Q41.64375 80.197914 41.33125 81.11979Q41.034374 82.041664 40.409374 82.55729Q39.8 83.05729 38.846874 83.05729Q37.6125 83.05729 36.89375 82.166664Q36.05 81.104164 36.05 78.68229ZM37.128124 78.68229Q37.128124 80.791664 37.628124 81.49479Q38.128124 82.197914 38.846874 82.197914Q39.58125 82.197914 40.065624 81.49479Q40.565624 80.791664 40.565624 78.68229Q40.565624 76.55729 40.065624 75.86979Q39.58125 75.166664 38.83125 75.166664Q38.1125 75.166664 37.675 75.77604Q37.128124 76.55729 37.128124 78.68229ZM43.253124 76.385414Q43.253124 75.46354 43.70625 74.822914Q44.175 74.18229 45.05 74.18229Q45.8625 74.18229 46.39375 74.760414Q46.925 75.33854 46.925 76.447914Q46.925 77.541664 46.378124 78.135414Q45.846874 78.71354 45.065624 78.71354Q44.284374 78.71354 43.76875 78.135414Q43.253124 77.55729 43.253124 76.385414ZM45.08125 74.90104Q44.690624 74.90104 44.425 75.24479Q44.175 75.58854 44.175 76.49479Q44.175 77.322914 44.425 77.666664Q44.690624 77.99479 45.08125 77.99479Q45.4875 77.99479 45.7375 77.65104Q46.003124 77.30729 46.003124 76.416664Q46.003124 75.572914 45.7375 75.24479Q45.471874 74.90104 45.08125 74.90104ZM45.08125 83.229164L49.784374 74.18229L50.64375 74.18229L45.95625 83.229164L45.08125 83.229164ZM48.8 80.90104Q48.8 79.979164 49.253124 79.33854Q49.721874 78.697914 50.6125 78.697914Q51.425 78.697914 51.95625 79.27604Q52.4875 79.83854 52.4875 80.96354Q52.4875 82.05729 51.940624 82.65104Q51.409374 83.229164 50.6125 83.229164Q49.846874 83.229164 49.315624 82.65104Q48.8 82.072914 48.8 80.90104ZM50.64375 79.416664Q50.2375 79.416664 49.971874 79.760414Q49.721874 80.104164 49.721874 81.010414Q49.721874 81.822914 49.9875 82.166664Q50.253124 82.510414 50.64375 82.510414Q51.034374 82.510414 51.3 82.166664Q51.565624 81.822914 51.565624 80.916664Q51.565624 80.08854 51.3 79.760414Q51.034374 79.416664 50.64375 79.416664Z" fill-rule="nonzero"/><path stroke="#757575" stroke-width="1.0" stroke-linecap="butt" d="M18.55 70.416664L100.23333 70.416664L211.32715 69.2721" fill-rule="nonzero"/><path fill="#9e9e9e" d="M213.32715 69.2721C213.32715 68.167534 212.43172 67.2721 211.32715 67.2721C210.22258 67.2721 209.32715 68.167534 209.32715 69.2721C209.32715 70.37667 210.22258 71.2721 211.32715 71.2721C212.43172 71.2721 213.32715 70.37667 213.32715 69.2721" fill-rule="nonzero"/><path fill="#1a1a1a" d="M19.440624 96.916664L19.440624 88.322914L21.159374 88.322914L23.190624 94.40104Q23.471874 95.260414 23.596874 95.68229Q23.7375 95.21354 24.05 94.30729L26.1125 88.322914L27.64375 88.322914L27.64375 96.916664L26.55 96.916664L26.55 89.729164L24.05 96.916664L23.01875 96.916664L20.534374 89.604164L20.534374 96.916664L19.440624 96.916664ZM32.409374 96.15104Q31.815624 96.65104 31.26875 96.854164Q30.7375 97.05729 30.1125 97.05729Q29.08125 97.05729 28.534374 96.55729Q27.9875 96.05729 27.9875 95.27604Q27.9875 94.822914 28.190624 94.447914Q28.39375 94.05729 28.7375 93.83854Q29.08125 93.604164 29.503124 93.49479Q29.8 93.40104 30.440624 93.322914Q31.70625 93.18229 32.315624 92.96354Q32.315624 92.74479 32.315624 92.697914Q32.315624 92.041664 32.01875 91.77604Q31.6125 91.43229 30.815624 91.43229Q30.08125 91.43229 29.721874 91.697914Q29.3625 91.947914 29.190624 92.604164L28.159374 92.46354Q28.3 91.80729 28.628124 91.40104Q28.95625 90.99479 29.565624 90.77604Q30.175 90.55729 30.971874 90.55729Q31.76875 90.55729 32.26875 90.74479Q32.76875 90.93229 33.003124 91.21354Q33.2375 91.49479 33.33125 91.93229Q33.378124 92.197914 33.378124 92.90104L33.378124 94.30729Q33.378124 95.77604 33.440624 96.166664Q33.51875 96.55729 33.721874 96.916664L32.6125 96.916664Q32.45625 96.58854 32.409374 96.15104ZM32.315624 93.791664Q31.7375 94.02604 30.596874 94.197914Q29.940624 94.291664 29.675 94.416664Q29.409374 94.52604 29.253124 94.74479Q29.1125 94.96354 29.1125 95.24479Q29.1125 95.666664 29.425 95.947914Q29.753124 96.229164 30.3625 96.229164Q30.971874 96.229164 31.440624 95.96354Q31.925 95.697914 32.14375 95.229164Q32.315624 94.86979 32.315624 94.18229L32.315624 93.791664ZM35.33125 96.916664L35.33125 90.697914L36.284374 90.697914L36.284374 91.635414Q36.64375 90.979164 36.940624 90.77604Q37.253124 90.55729 37.628124 90.55729Q38.159374 90.55729 38.70625 90.885414L38.346874 91.86979Q37.95625 91.635414 37.58125 91.635414Q37.221874 91.635414 36.940624 91.854164Q36.675 92.05729 36.565624 92.43229Q36.378124 92.99479 36.378124 93.65104L36.378124 96.916664L35.33125 96.916664ZM39.346874 96.916664L39.346874 88.322914L40.409374 88.322914L40.409374 93.229164L42.89375 90.697914L44.26875 90.697914L41.878124 92.99479L44.503124 96.916664L43.20625 96.916664L41.14375 93.729164L40.409374 94.447914L40.409374 96.916664L39.346874 96.916664ZM49.596874 94.916664L50.690624 95.041664Q50.440624 95.99479 49.7375 96.52604Q49.034374 97.05729 47.95625 97.05729Q46.596874 97.05729 45.784374 96.21354Q44.9875 95.36979 44.9875 93.854164Q44.9875 92.291664 45.8 91.43229Q46.6125 90.55729 47.89375 90.55729Q49.14375 90.55729 49.925 91.40104Q50.721874 92.24479 50.721874 93.791664Q50.721874 93.885414 50.721874 94.072914L46.08125 94.072914Q46.14375 95.104164 46.659374 95.65104Q47.175 96.18229 47.95625 96.18229Q48.534374 96.18229 48.940624 95.885414Q49.3625 95.572914 49.596874 94.916664ZM46.14375 93.21354L49.6125 93.21354Q49.55 92.416664 49.221874 92.02604Q48.70625 91.416664 47.909374 91.416664Q47.175 91.416664 46.675 91.90104Q46.190624 92.385414 46.14375 93.21354ZM54.64375 95.979164L54.8 96.90104Q54.346874 96.99479 54.003124 96.99479Q53.425 96.99479 53.1125 96.822914Q52.8 96.635414 52.659374 96.33854Q52.534374 96.041664 52.534374 95.08854L52.534374 91.510414L51.76875 91.510414L51.76875 90.697914L52.534374 90.697914L52.534374 89.15104L53.58125 88.52604L53.58125 90.697914L54.64375 90.697914L54.64375 91.510414L53.58125 91.510414L53.58125 95.15104Q53.58125 95.604164 53.628124 95.729164Q53.690624 95.854164 53.815624 95.93229Q53.940624 96.010414 54.175 96.010414Q54.3625 96.010414 54.64375 95.979164ZM55.346874 89.541664L55.346874 88.322914L56.409374 88.322914L56.409374 89.541664L55.346874 89.541664ZM55.346874 96.916664L55.346874 90.697914L56.409374 90.697914L56.409374 96.916664L55.346874 96.916664ZM58.346874 96.916664L58.346874 90.697914L59.284374 90.697914L59.284374 91.572914Q59.971874 90.55729 61.26875 90.55729Q61.83125 90.55729 62.3 90.760414Q62.784374 90.96354 63.01875 91.291664Q63.253124 91.61979 63.346874 92.05729Q63.39375 92.354164 63.39375 93.08854L63.39375 96.916664L62.346874 96.916664L62.346874 93.135414Q62.346874 92.479164 62.221874 92.166664Q62.096874 91.854164 61.784374 91.666664Q61.471874 91.46354 61.05 91.46354Q60.378124 91.46354 59.878124 91.90104Q59.39375 92.322914 59.39375 93.510414L59.39375 96.916664L58.346874 96.916664ZM65.14375 97.43229L66.175 97.58854Q66.2375 98.05729 66.53438 98.27604Q66.925 98.572914 67.59688 98.572914Q68.33125 98.572914 68.72188 98.27604Q69.12813 97.979164 69.26875 97.46354Q69.3625 97.135414 69.34688 96.104164Q68.65938 96.916664 67.62813 96.916664Q66.34688 96.916664 65.64375 95.99479Q64.94063 95.05729 64.94063 93.77604Q64.94063 92.885414 65.25313 92.135414Q65.58125 91.36979 66.19063 90.96354Q66.8 90.55729 67.62813 90.55729Q68.7375 90.55729 69.45625 91.447914L69.45625 90.697914L70.425 90.697914L70.425 96.072914Q70.425 97.52604 70.12813 98.135414Q69.83125 98.74479 69.19063 99.08854Q68.55 99.447914 67.6125 99.447914Q66.50313 99.447914 65.81563 98.947914Q65.12813 98.447914 65.14375 97.43229ZM66.01875 93.697914Q66.01875 94.916664 66.50313 95.479164Q66.9875 96.041664 67.72188 96.041664Q68.45625 96.041664 68.94063 95.479164Q69.44063 94.916664 69.44063 93.729164Q69.44063 92.58854 68.925 92.010414Q68.425 91.43229 67.70625 91.43229Q67.00313 91.43229 66.50313 92.010414Q66.01875 92.572914 66.01875 93.697914ZM75.59688 96.916664L75.59688 91.510414L74.65938 91.510414L74.65938 90.697914L75.59688 90.697914L75.59688 90.02604Q75.59688 89.40104 75.70625 89.104164Q75.8625 88.68229 76.2375 88.43229Q76.62813 88.18229 77.31563 88.18229Q77.76875 88.18229 78.3 88.291664L78.14375 89.197914Q77.81563 89.15104 77.51875 89.15104Q77.03438 89.15104 76.83125 89.354164Q76.64375 89.55729 76.64375 90.11979L76.64375 90.697914L77.8625 90.697914L77.8625 91.510414L76.64375 91.510414L76.64375 96.916664L75.59688 96.916664ZM82.425 96.916664L82.425 95.99479Q81.69063 97.05729 80.44063 97.05729Q79.89375 97.05729 79.40938 96.854164Q78.94063 96.635414 78.70625 96.322914Q78.47188 95.99479 78.37813 95.52604Q78.31563 95.229164 78.31563 94.541664L78.31563 90.697914L79.37813 90.697914L79.37813 94.15104Q79.37813 94.96354 79.44063 95.260414Q79.53438 95.666664 79.84688 95.916664Q80.175 96.15104 80.65938 96.15104Q81.12813 96.15104 81.53438 95.916664Q81.95625 95.666664 82.12813 95.24479Q82.31563 94.822914 82.31563 94.02604L82.31563 90.697914L83.3625 90.697914L83.3625 96.916664L82.425 96.916664ZM85.34688 96.916664L85.34688 90.697914L86.28438 90.697914L86.28438 91.572914Q86.97188 90.55729 88.26875 90.55729Q88.83125 90.55729 89.3 90.760414Q89.78438 90.96354 90.01875 91.291664Q90.25313 91.61979 90.34688 92.05729Q90.39375 92.354164 90.39375 93.08854L90.39375 96.916664L89.34688 96.916664L89.34688 93.135414Q89.34688 92.479164 89.22188 92.166664Q89.09688 91.854164 88.78438 91.666664Q88.47188 91.46354 88.05 91.46354Q87.37813 91.46354 86.87813 91.90104Q86.39375 92.322914 86.39375 93.510414L86.39375 96.916664L85.34688 96.916664ZM96.37813 96.916664L96.37813 96.135414Q95.78438 97.05729 94.64375 97.05729Q93.89375 97.05729 93.26875 96.65104Q92.64375 96.229164 92.3 95.49479Q91.95625 94.760414 91.95625 93.80729Q91.95625 92.885414 92.26875 92.11979Q92.58125 91.354164 93.20625 90.96354Q93.83125 90.55729 94.59688 90.55729Q95.15938 90.55729 95.59688 90.791664Q96.03438 91.02604 96.31563 91.40104L96.31563 88.322914L97.3625 88.322914L97.3625 96.916664L96.37813 96.916664ZM93.05 93.80729Q93.05 95.010414 93.55 95.604164Q94.05 96.18229 94.7375 96.18229Q95.425 96.18229 95.90938 95.61979Q96.39375 95.05729 96.39375 93.90104Q96.39375 92.61979 95.89375 92.02604Q95.40938 91.43229 94.69063 91.43229Q93.9875 91.43229 93.51875 92.010414Q93.05 92.572914 93.05 93.80729Z" fill-rule="nonzero"/><path fill="#9e9e9e" d="M19.05 111.65104L20.1125 111.510414Q20.284374 112.40104 20.721874 112.80729Q21.159374 113.197914 21.784374 113.197914Q22.534374 113.197914 23.05 112.68229Q23.565624 112.166664 23.565624 111.40104Q23.565624 110.68229 23.08125 110.21354Q22.6125 109.729164 21.878124 109.729164Q21.58125 109.729164 21.128124 109.854164L21.253124 108.916664Q21.3625 108.93229 21.425 108.93229Q22.096874 108.93229 22.628124 108.58854Q23.175 108.229164 23.175 107.49479Q23.175 106.916664 22.784374 106.541664Q22.39375 106.15104 21.76875 106.15104Q21.159374 106.15104 20.7375 106.541664Q20.33125 106.93229 20.221874 107.697914L19.159374 107.510414Q19.346874 106.46354 20.034374 105.885414Q20.721874 105.291664 21.7375 105.291664Q22.440624 105.291664 23.034374 105.604164Q23.628124 105.90104 23.940624 106.416664Q24.253124 106.93229 24.253124 107.52604Q24.253124 108.072914 23.95625 108.541664Q23.659374 108.99479 23.08125 109.260414Q23.83125 109.43229 24.253124 109.99479Q24.675 110.541664 24.675 111.385414Q24.675 112.510414 23.846874 113.291664Q23.034374 114.072914 21.784374 114.072914Q20.659374 114.072914 19.909374 113.40104Q19.159374 112.71354 19.05 111.65104ZM26.64375 113.916664L26.64375 112.71354L27.846874 112.71354L27.846874 113.916664L26.64375 113.916664ZM29.05 111.666664L30.159374 111.572914Q30.284374 112.385414 30.721874 112.791664Q31.175 113.197914 31.815624 113.197914Q32.565624 113.197914 33.096874 112.61979Q33.628124 112.041664 33.628124 111.104164Q33.628124 110.197914 33.1125 109.68229Q32.6125 109.15104 31.784374 109.15104Q31.284374 109.15104 30.8625 109.385414Q30.45625 109.61979 30.221874 109.979164L29.2375 109.854164L30.065624 105.447914L34.346874 105.447914L34.346874 106.447914L30.909374 106.447914L30.45625 108.760414Q31.221874 108.21354 32.065624 108.21354Q33.190624 108.21354 33.95625 108.99479Q34.7375 109.77604 34.7375 111.010414Q34.7375 112.166664 34.065624 113.02604Q33.2375 114.05729 31.815624 114.05729Q30.64375 114.05729 29.89375 113.40104Q29.159374 112.74479 29.05 111.666664ZM36.253124 107.385414Q36.253124 106.46354 36.70625 105.822914Q37.175 105.18229 38.05 105.18229Q38.8625 105.18229 39.39375 105.760414Q39.925 106.33854 39.925 107.447914Q39.925 108.541664 39.378124 109.135414Q38.846874 109.71354 38.065624 109.71354Q37.284374 109.71354 36.76875 109.135414Q36.253124 108.55729 36.253124 107.385414ZM38.08125 105.90104Q37.690624 105.90104 37.425 106.24479Q37.175 106.58854 37.175 107.49479Q37.175 108.322914 37.425 108.666664Q37.690624 108.99479 38.08125 108.99479Q38.4875 108.99479 38.7375 108.65104Q39.003124 108.30729 39.003124 107.416664Q39.003124 106.572914 38.7375 106.24479Q38.471874 105.90104 38.08125 105.90104ZM38.08125 114.229164L42.784374 105.18229L43.64375 105.18229L38.95625 114.229164L38.08125 114.229164ZM41.8 111.90104Q41.8 110.979164 42.253124 110.33854Q42.721874 109.697914 43.6125 109.697914Q44.425 109.697914 44.95625 110.27604Q45.4875 110.83854 45.4875 111.96354Q45.4875 113.05729 44.940624 113.65104Q44.409374 114.229164 43.6125 114.229164Q42.846874 114.229164 42.315624 113.65104Q41.8 113.072914 41.8 111.90104ZM43.64375 110.416664Q43.2375 110.416664 42.971874 110.760414Q42.721874 111.104164 42.721874 112.010414Q42.721874 112.822914 42.9875 113.166664Q43.253124 113.510414 43.64375 113.510414Q44.034374 113.510414 44.3 113.166664Q44.565624 112.822914 44.565624 111.916664Q44.565624 111.08854 44.3 110.760414Q44.034374 110.416664 43.64375 110.416664Z" fill-rule="nonzero"/><path stroke="#757575" stroke-width="1.0" stroke-linecap="butt" d="M18.55 101.416664L100.23333 101.416664L159.88426 99.152504" fill-rule="nonzero"/><path fill="#9e9e9e" d="M161.88426 99.152504C161.88426 98.047935 160.98883 97.152504 159.88426 97.152504C158.7797 97.152504 157.88426 98.047935 157.88426 99.152504C157.88426 100.25707 158.7797 101.152504 159.88426 101.152504C160.98883 101.152504 161.88426 100.25707 161.88426 99.152504" fill-rule="nonzero"/><path fill="#1a1a1a" d="M19.471874 127.916664L19.471874 119.322914L22.440624 119.322914Q23.440624 119.322914 23.971874 119.447914Q24.70625 119.61979 25.221874 120.05729Q25.909374 120.635414 26.2375 121.541664Q26.58125 122.43229 26.58125 123.572914Q26.58125 124.55729 26.346874 125.30729Q26.128124 126.05729 25.76875 126.55729Q25.409374 127.05729 24.971874 127.33854Q24.55 127.61979 23.95625 127.77604Q23.3625 127.916664 22.58125 127.916664L19.471874 127.916664ZM20.6125 126.90104L22.440624 126.90104Q23.3 126.90104 23.784374 126.74479Q24.26875 126.58854 24.55 126.291664Q24.95625 125.90104 25.175 125.21354Q25.409374 124.52604 25.409374 123.55729Q25.409374 122.21354 24.95625 121.49479Q24.51875 120.760414 23.89375 120.510414Q23.425 120.33854 22.425 120.33854L20.6125 120.33854L20.6125 126.90104ZM32.409374 127.15104Q31.815624 127.65104 31.26875 127.854164Q30.7375 128.05728 30.1125 128.05728Q29.08125 128.05728 28.534374 127.55729Q27.9875 127.05729 27.9875 126.27604Q27.9875 125.822914 28.190624 125.447914Q28.39375 125.05729 28.7375 124.83854Q29.08125 124.604164 29.503124 124.49479Q29.8 124.40104 30.440624 124.322914Q31.70625 124.18229 32.315624 123.96354Q32.315624 123.74479 32.315624 123.697914Q32.315624 123.041664 32.01875 122.77604Q31.6125 122.43229 30.815624 122.43229Q30.08125 122.43229 29.721874 122.697914Q29.3625 122.947914 29.190624 123.604164L28.159374 123.46354Q28.3 122.80729 28.628124 122.40104Q28.95625 121.99479 29.565624 121.77604Q30.175 121.55729 30.971874 121.55729Q31.76875 121.55729 32.26875 121.74479Q32.76875 121.93229 33.003124 122.21354Q33.2375 122.49479 33.33125 122.93229Q33.378124 123.197914 33.378124 123.90104L33.378124 125.30729Q33.378124 126.77604 33.440624 127.166664Q33.51875 127.55729 33.721874 127.916664L32.6125 127.916664Q32.45625 127.58854 32.409374 127.15104ZM32.315624 124.791664Q31.7375 125.02604 30.596874 125.197914Q29.940624 125.291664 29.675 125.416664Q29.409374 125.52604 29.253124 125.74479Q29.1125 125.96354 29.1125 126.24479Q29.1125 126.666664 29.425 126.947914Q29.753124 127.229164 30.3625 127.229164Q30.971874 127.229164 31.440624 126.96354Q31.925 126.697914 32.14375 126.229164Q32.315624 125.86979 32.315624 125.18229L32.315624 124.791664ZM34.95625 124.80729Q34.95625 123.072914 35.909374 122.24479Q36.70625 121.55729 37.8625 121.55729Q39.14375 121.55729 39.95625 122.40104Q40.784374 123.229164 40.784374 124.71354Q40.784374 125.916664 40.425 126.604164Q40.065624 127.291664 39.3625 127.68229Q38.675 128.05728 37.8625 128.05728Q36.565624 128.05728 35.753124 127.229164Q34.95625 126.385414 34.95625 124.80729ZM36.034374 124.80729Q36.034374 125.99479 36.55 126.58854Q37.08125 127.18229 37.8625 127.18229Q38.659374 127.18229 39.175 126.58854Q39.690624 125.99479 39.690624 124.77604Q39.690624 123.61979 39.159374 123.02604Q38.64375 122.43229 37.8625 122.43229Q37.08125 122.43229 36.55 123.02604Q36.034374 123.604164 36.034374 124.80729ZM45.596874 127.916664L45.596874 122.510414L44.659374 122.510414L44.659374 121.697914L45.596874 121.697914L45.596874 121.02604Q45.596874 120.40104 45.70625 120.104164Q45.8625 119.68229 46.2375 119.43229Q46.628124 119.18229 47.315624 119.18229Q47.76875 119.18229 48.3 119.291664L48.14375 120.197914Q47.815624 120.15104 47.51875 120.15104Q47.034374 120.15104 46.83125 120.354164Q46.64375 120.55729 46.64375 121.11979L46.64375 121.697914L47.8625 121.697914L47.8625 122.510414L46.64375 122.510414L46.64375 127.916664L45.596874 127.916664ZM52.425 127.916664L52.425 126.99479Q51.690624 128.05728 50.440624 128.05728Q49.89375 128.05728 49.409374 127.854164Q48.940624 127.635414 48.70625 127.322914Q48.471874 126.99479 48.378124 126.52604Q48.315624 126.229164 48.315624 125.541664L48.315624 121.697914L49.378124 121.697914L49.378124 125.15104Q49.378124 125.96354 49.440624 126.260414Q49.534374 126.666664 49.846874 126.916664Q50.175 127.15104 50.659374 127.15104Q51.128124 127.15104 51.534374 126.916664Q51.95625 126.666664 52.128124 126.24479Q52.315624 125.822914 52.315624 125.02604L52.315624 121.697914L53.3625 121.697914L53.3625 127.916664L52.425 127.916664ZM55.346874 127.916664L55.346874 121.697914L56.284374 121.697914L56.284374 122.572914Q56.971874 121.55729 58.26875 121.55729Q58.83125 121.55729 59.3 121.760414Q59.784374 121.96354 60.01875 122.291664Q60.253124 122.61979 60.346874 123.05729Q60.39375 123.354164 60.39375 124.08854L60.39375 127.916664L59.346874 127.916664L59.346874 124.135414Q59.346874 123.479164 59.221874 123.166664Q59.096874 122.854164 58.784374 122.666664Q58.471874 122.46354 58.05 122.46354Q57.378124 122.46354 56.878124 122.90104Q56.39375 123.322914 56.39375 124.510414L56.39375 127.916664L55.346874 127.916664ZM66.37813 127.916664L66.37813 127.135414Q65.78438 128.05728 64.64375 128.05728Q63.89375 128.05728 63.26875 127.65104Q62.64375 127.229164 62.3 126.49479Q61.95625 125.760414 61.95625 124.80729Q61.95625 123.885414 62.26875 123.11979Q62.58125 122.354164 63.20625 121.96354Q63.83125 121.55729 64.59688 121.55729Q65.15938 121.55729 65.59688 121.791664Q66.03438 122.02604 66.31563 122.40104L66.31563 119.322914L67.3625 119.322914L67.3625 127.916664L66.37813 127.916664ZM63.05 124.80729Q63.05 126.010414 63.55 126.604164Q64.05 127.18229 64.7375 127.18229Q65.425 127.18229 65.90938 126.61979Q66.39375 126.05729 66.39375 124.90104Q66.39375 123.61979 65.89375 123.02604Q65.40938 122.43229 64.69063 122.43229Q63.9875 122.43229 63.51875 123.010414Q63.05 123.572914 63.05 124.80729Z" fill-rule="nonzero"/><path fill="#9e9e9e" d="M19.05 142.65105L20.1125 142.51042Q20.284374 143.40105 20.721874 143.8073Q21.159374 144.19792 21.784374 144.19792Q22.534374 144.19792 23.05 143.6823Q23.565624 143.16667 23.565624 142.40105Q23.565624 141.6823 23.08125 141.21355Q22.6125 140.72917 21.878124 140.72917Q21.58125 140.72917 21.128124 140.85417L21.253124 139.91667Q21.3625 139.9323 21.425 139.9323Q22.096874 139.9323 22.628124 139.58855Q23.175 139.22917 23.175 138.4948Q23.175 137.91667 22.784374 137.54167Q22.39375 137.15105 21.76875 137.15105Q21.159374 137.15105 20.7375 137.54167Q20.33125 137.9323 20.221874 138.69792L19.159374 138.51042Q19.346874 137.46355 20.034374 136.88542Q20.721874 136.29167 21.7375 136.29167Q22.440624 136.29167 23.034374 136.60417Q23.628124 136.90105 23.940624 137.41667Q24.253124 137.9323 24.253124 138.52605Q24.253124 139.07292 23.95625 139.54167Q23.659374 139.9948 23.08125 140.26042Q23.83125 140.4323 24.253124 140.9948Q24.675 141.54167 24.675 142.38542Q24.675 143.51042 23.846874 144.29167Q23.034374 145.07292 21.784374 145.07292Q20.659374 145.07292 19.909374 144.40105Q19.159374 143.71355 19.05 142.65105ZM26.64375 144.91667L26.64375 143.71355L27.846874 143.71355L27.846874 144.91667L26.64375 144.91667ZM29.05 142.66667L30.159374 142.57292Q30.284374 143.38542 30.721874 143.79167Q31.175 144.19792 31.815624 144.19792Q32.565624 144.19792 33.096874 143.6198Q33.628124 143.04167 33.628124 142.10417Q33.628124 141.19792 33.1125 140.6823Q32.6125 140.15105 31.784374 140.15105Q31.284374 140.15105 30.8625 140.38542Q30.45625 140.6198 30.221874 140.97917L29.2375 140.85417L30.065624 136.44792L34.346874 136.44792L34.346874 137.44792L30.909374 137.44792L30.45625 139.76042Q31.221874 139.21355 32.065624 139.21355Q33.190624 139.21355 33.95625 139.9948Q34.7375 140.77605 34.7375 142.01042Q34.7375 143.16667 34.065624 144.02605Q33.2375 145.0573 31.815624 145.0573Q30.64375 145.0573 29.89375 144.40105Q29.159374 143.7448 29.05 142.66667ZM36.253124 138.38542Q36.253124 137.46355 36.70625 136.82292Q37.175 136.1823 38.05 136.1823Q38.8625 136.1823 39.39375 136.76042Q39.925 137.33855 39.925 138.44792Q39.925 139.54167 39.378124 140.13542Q38.846874 140.71355 38.065624 140.71355Q37.284374 140.71355 36.76875 140.13542Q36.253124 139.5573 36.253124 138.38542ZM38.08125 136.90105Q37.690624 136.90105 37.425 137.2448Q37.175 137.58855 37.175 138.4948Q37.175 139.32292 37.425 139.66667Q37.690624 139.9948 38.08125 139.9948Q38.4875 139.9948 38.7375 139.65105Q39.003124 139.3073 39.003124 138.41667Q39.003124 137.57292 38.7375 137.2448Q38.471874 136.90105 38.08125 136.90105ZM38.08125 145.22917L42.784374 136.1823L43.64375 136.1823L38.95625 145.22917L38.08125 145.22917ZM41.8 142.90105Q41.8 141.97917 42.253124 141.33855Q42.721874 140.69792 43.6125 140.69792Q44.425 140.69792 44.95625 141.27605Q45.4875 141.83855 45.4875 142.96355Q45.4875 144.0573 44.940624 144.65105Q44.409374 145.22917 43.6125 145.22917Q42.846874 145.22917 42.315624 144.65105Q41.8 144.07292 41.8 142.90105ZM43.64375 141.41667Q43.2375 141.41667 42.971874 141.76042Q42.721874 142.10417 42.721874 143.01042Q42.721874 143.82292 42.9875 144.16667Q43.253124 144.51042 43.64375 144.51042Q44.034374 144.51042 44.3 144.16667Q44.565624 143.82292 44.565624 142.91667Q44.565624 142.08855 44.3 141.76042Q44.034374 141.41667 43.64375 141.41667Z" fill-rule="nonzero"/><path stroke="#757575" stroke-width="1.0" stroke-linecap="butt" d="M18.55 132.41667L100.23333 132.41667L139.37227 122.4188" fill-rule="nonzero"/><path fill="#9e9e9e" d="M141.37227 122.4188C141.37227 121.31423 140.47684 120.4188 139.37227 120.4188C138.2677 120.4188 137.37227 121.31423 137.37227 122.4188C137.37227 123.52337 138.2677 124.4188 139.37227 124.4188C140.47684 124.4188 141.37227 123.52337 141.37227 122.4188" fill-rule="nonzero"/><path fill="#1a1a1a" d="M19.471874 216.89647L19.471874 208.30272L22.721874 208.30272Q23.565624 208.30272 24.01875 208.38084Q24.659374 208.49022 25.08125 208.7871Q25.51875 209.08397 25.76875 209.61522Q26.034374 210.14647 26.034374 210.7871Q26.034374 211.88084 25.33125 212.64647Q24.64375 213.39647 22.815624 213.39647L20.6125 213.39647L20.6125 216.89647L19.471874 216.89647ZM20.6125 212.39647L22.83125 212.39647Q23.940624 212.39647 24.39375 211.99022Q24.8625 211.56834 24.8625 210.81834Q24.8625 210.2871 24.58125 209.9121Q24.315624 209.52147 23.878124 209.39647Q23.58125 209.31834 22.815624 209.31834L20.6125 209.31834L20.6125 212.39647ZM31.425 216.89647L31.425 215.9746Q30.690624 217.0371 29.440624 217.0371Q28.89375 217.0371 28.409374 216.83397Q27.940624 216.61522 27.70625 216.30272Q27.471874 215.9746 27.378124 215.50584Q27.315624 215.20897 27.315624 214.52147L27.315624 210.67772L28.378124 210.67772L28.378124 214.13084Q28.378124 214.94334 28.440624 215.24022Q28.534374 215.64647 28.846874 215.89647Q29.175 216.13084 29.659374 216.13084Q30.128124 216.13084 30.534374 215.89647Q30.95625 215.64647 31.128124 215.2246Q31.315624 214.80272 31.315624 214.00584L31.315624 210.67772L32.3625 210.67772L32.3625 216.89647L31.425 216.89647ZM35.315624 216.89647L34.33125 216.89647L34.33125 208.30272L35.39375 208.30272L35.39375 211.36522Q36.065624 210.5371 37.096874 210.5371Q37.675 210.5371 38.175 210.77147Q38.690624 210.99022 39.01875 211.4121Q39.3625 211.83397 39.55 212.42772Q39.7375 213.02147 39.7375 213.69334Q39.7375 215.2871 38.940624 216.1621Q38.14375 217.0371 37.05 217.0371Q35.940624 217.0371 35.315624 216.11522L35.315624 216.89647ZM35.3 213.74022Q35.3 214.8496 35.6125 215.3496Q36.1125 216.1621 36.95625 216.1621Q37.64375 216.1621 38.14375 215.56834Q38.659374 214.9746 38.659374 213.77147Q38.659374 212.55272 38.175 211.9746Q37.690624 211.39647 37.003124 211.39647Q36.315624 211.39647 35.8 212.00584Q35.3 212.5996 35.3 213.74022ZM41.315624 216.89647L41.315624 208.30272L42.378124 208.30272L42.378124 216.89647L41.315624 216.89647ZM44.346874 209.52147L44.346874 208.30272L45.409374 208.30272L45.409374 209.52147L44.346874 209.52147ZM44.346874 216.89647L44.346874 210.67772L45.409374 210.67772L45.409374 216.89647L44.346874 216.89647ZM51.409374 214.61522L52.440624 214.75584Q52.26875 215.81834 51.565624 216.42772Q50.8625 217.0371 49.846874 217.0371Q48.565624 217.0371 47.784374 216.20897Q47.01875 215.36522 47.01875 213.80272Q47.01875 212.80272 47.346874 212.05272Q47.690624 211.2871 48.3625 210.9121Q49.05 210.5371 49.8625 210.5371Q50.8625 210.5371 51.503124 211.05272Q52.159374 211.55272 52.346874 212.50584L51.315624 212.6621Q51.175 212.0371 50.8 211.7246Q50.425 211.39647 49.89375 211.39647Q49.096874 211.39647 48.596874 211.9746Q48.096874 212.5371 48.096874 213.77147Q48.096874 215.0371 48.58125 215.5996Q49.065624 216.1621 49.83125 216.1621Q50.45625 216.1621 50.8625 215.7871Q51.284374 215.4121 51.409374 214.61522ZM56.675 216.89647L56.675 208.30272L57.8 208.30272L57.8 216.89647L56.675 216.89647ZM65.6125 213.88084L66.7375 214.17772Q66.37813 215.56834 65.45625 216.30272Q64.53438 217.0371 63.190624 217.0371Q61.8 217.0371 60.925 216.4746Q60.05 215.9121 59.596874 214.8496Q59.14375 213.77147 59.14375 212.5371Q59.14375 211.19334 59.659374 210.19334Q60.175 209.19334 61.1125 208.67772Q62.065624 208.1621 63.20625 208.1621Q64.4875 208.1621 65.3625 208.81834Q66.25313 209.4746 66.59688 210.6621L65.47188 210.92772Q65.175 209.99022 64.59688 209.56834Q64.03438 209.13084 63.175 209.13084Q62.190624 209.13084 61.51875 209.61522Q60.8625 210.08397 60.58125 210.88084Q60.315624 211.67772 60.315624 212.5371Q60.315624 213.63084 60.628124 214.44334Q60.95625 215.25584 61.628124 215.6621Q62.3 216.06834 63.096874 216.06834Q64.05 216.06834 64.70625 215.52147Q65.37813 214.9746 65.6125 213.88084ZM68.12813 212.70897Q68.12813 210.56834 69.26875 209.36522Q70.425 208.14647 72.2375 208.14647Q73.44063 208.14647 74.39375 208.7246Q75.34688 209.2871 75.84688 210.30272Q76.34688 211.31834 76.34688 212.61522Q76.34688 213.9121 75.81563 214.94334Q75.28438 215.9746 74.31563 216.50584Q73.3625 217.0371 72.2375 217.0371Q71.01875 217.0371 70.06563 216.45897Q69.1125 215.86522 68.6125 214.86522Q68.12813 213.8496 68.12813 212.70897ZM69.3 212.7246Q69.3 214.2871 70.12813 215.17772Q70.97188 216.06834 72.2375 216.06834Q73.51875 216.06834 74.34688 215.17772Q75.175 214.27147 75.175 212.5996Q75.175 211.55272 74.81563 210.77147Q74.47188 209.99022 73.78438 209.56834Q73.09688 209.13084 72.25313 209.13084Q71.05 209.13084 70.175 209.95897Q69.3 210.7871 69.3 212.7246Z" fill-rule="nonzero"/><path fill="#9e9e9e" d="M24.596874 232.88084L24.596874 233.89647L18.909374 233.89647Q18.909374 233.52147 19.034374 233.1621Q19.253124 232.58397 19.721874 232.02147Q20.20625 231.45897 21.1125 230.7246Q22.51875 229.56834 23.003124 228.89647Q23.503124 228.2246 23.503124 227.63084Q23.503124 227.00584 23.05 226.58397Q22.596874 226.14647 21.878124 226.14647Q21.1125 226.14647 20.659374 226.5996Q20.20625 227.05272 20.190624 227.86522L19.1125 227.75584Q19.221874 226.5371 19.940624 225.9121Q20.675 225.27147 21.909374 225.27147Q23.14375 225.27147 23.8625 225.95897Q24.58125 226.64647 24.58125 227.6621Q24.58125 228.17772 24.3625 228.67772Q24.159374 229.1621 23.659374 229.7246Q23.175 230.27147 22.05 231.2246Q21.096874 232.02147 20.815624 232.31834Q20.55 232.5996 20.378124 232.88084L24.596874 232.88084ZM26.05 229.6621Q26.05 228.13084 26.3625 227.20897Q26.675 226.27147 27.284374 225.77147Q27.909374 225.27147 28.846874 225.27147Q29.534374 225.27147 30.05 225.55272Q30.58125 225.83397 30.925 226.36522Q31.26875 226.88084 31.45625 227.63084Q31.64375 228.38084 31.64375 229.6621Q31.64375 231.17772 31.33125 232.0996Q31.034374 233.02147 30.409374 233.5371Q29.8 234.0371 28.846874 234.0371Q27.6125 234.0371 26.89375 233.14647Q26.05 232.08397 26.05 229.6621ZM27.128124 229.6621Q27.128124 231.77147 27.628124 232.4746Q28.128124 233.17772 28.846874 233.17772Q29.58125 233.17772 30.065624 232.4746Q30.565624 231.77147 30.565624 229.6621Q30.565624 227.5371 30.065624 226.8496Q29.58125 226.14647 28.83125 226.14647Q28.1125 226.14647 27.675 226.75584Q27.128124 227.5371 27.128124 229.6621ZM33.64375 233.89647L33.64375 232.69334L34.846874 232.69334L34.846874 233.89647L33.64375 233.89647ZM36.05 229.6621Q36.05 228.13084 36.3625 227.20897Q36.675 226.27147 37.284374 225.77147Q37.909374 225.27147 38.846874 225.27147Q39.534374 225.27147 40.05 225.55272Q40.58125 225.83397 40.925 226.36522Q41.26875 226.88084 41.45625 227.63084Q41.64375 228.38084 41.64375 229.6621Q41.64375 231.17772 41.33125 232.0996Q41.034374 233.02147 40.409374 233.5371Q39.8 234.0371 38.846874 234.0371Q37.6125 234.0371 36.89375 233.14647Q36.05 232.08397 36.05 229.6621ZM37.128124 229.6621Q37.128124 231.77147 37.628124 232.4746Q38.128124 233.17772 38.846874 233.17772Q39.58125 233.17772 40.065624 232.4746Q40.565624 231.77147 40.565624 229.6621Q40.565624 227.5371 40.065624 226.8496Q39.58125 226.14647 38.83125 226.14647Q38.1125 226.14647 37.675 226.75584Q37.128124 227.5371 37.128124 229.6621ZM43.253124 227.36522Q43.253124 226.44334 43.70625 225.80272Q44.175 225.1621 45.05 225.1621Q45.8625 225.1621 46.39375 225.74022Q46.925 226.31834 46.925 227.42772Q46.925 228.52147 46.378124 229.11522Q45.846874 229.69334 45.065624 229.69334Q44.284374 229.69334 43.76875 229.11522Q43.253124 228.5371 43.253124 227.36522ZM45.08125 225.88084Q44.690624 225.88084 44.425 226.2246Q44.175 226.56834 44.175 227.4746Q44.175 228.30272 44.425 228.64647Q44.690624 228.9746 45.08125 228.9746Q45.4875 228.9746 45.7375 228.63084Q46.003124 228.2871 46.003124 227.39647Q46.003124 226.55272 45.7375 226.2246Q45.471874 225.88084 45.08125 225.88084ZM45.08125 234.20897L49.784374 225.1621L50.64375 225.1621L45.95625 234.20897L45.08125 234.20897ZM48.8 231.88084Q48.8 230.95897 49.253124 230.31834Q49.721874 229.67772 50.6125 229.67772Q51.425 229.67772 51.95625 230.25584Q52.4875 230.81834 52.4875 231.94334Q52.4875 233.0371 51.940624 233.63084Q51.409374 234.20897 50.6125 234.20897Q49.846874 234.20897 49.315624 233.63084Q48.8 233.05272 48.8 231.88084ZM50.64375 230.39647Q50.2375 230.39647 49.971874 230.74022Q49.721874 231.08397 49.721874 231.99022Q49.721874 232.80272 49.9875 233.14647Q50.253124 233.49022 50.64375 233.49022Q51.034374 233.49022 51.3 233.14647Q51.565624 232.80272 51.565624 231.89647Q51.565624 231.06834 51.3 230.74022Q51.034374 230.39647 50.64375 230.39647Z" fill-rule="nonzero"/><path stroke="#757575" stroke-width="1.0" stroke-linecap="butt" d="M18.55 221.39647L100.23333 221.39647L114.78608 221.39647" fill-rule="nonzero"/><path fill="#9e9e9e" d="M116.78608 221.39647C116.78608 220.2919 115.890656 219.39647 114.78608 219.39647C113.68151 219.39647 112.78608 220.2919 112.78608 221.39647C112.78608 222.50104 113.68151 223.39647 114.78608 223.39647C115.890656 223.39647 116.78608 222.50104 116.78608 221.39647" fill-rule="nonzero"/><path fill="#1a1a1a" d="M462.5594 121.59085L462.5594 114.012726L459.73126 114.012726L459.73126 112.9971L466.54376 112.9971L466.54376 114.012726L463.7 114.012726L463.7 121.59085L462.5594 121.59085ZM471.4969 119.59085L472.59064 119.71585Q472.34064 120.668976 471.6375 121.200226Q470.9344 121.731476 469.85626 121.731476Q468.4969 121.731476 467.6844 120.887726Q466.8875 120.043976 466.8875 118.52835Q466.8875 116.96585 467.7 116.106476Q468.5125 115.231476 469.79376 115.231476Q471.04376 115.231476 471.825 116.075226Q472.6219 116.918976 472.6219 118.46585Q472.6219 118.5596 472.6219 118.7471L467.98126 118.7471Q468.04376 119.77835 468.5594 120.325226Q469.075 120.856476 469.85626 120.856476Q470.4344 120.856476 470.84064 120.5596Q471.2625 120.2471 471.4969 119.59085ZM468.04376 117.887726L471.5125 117.887726Q471.45 117.09085 471.1219 116.700226Q470.60626 116.09085 469.8094 116.09085Q469.075 116.09085 468.575 116.575226Q468.09064 117.0596 468.04376 117.887726ZM478.3094 120.825226Q477.71564 121.325226 477.16876 121.52835Q476.6375 121.731476 476.0125 121.731476Q474.98126 121.731476 474.4344 121.231476Q473.8875 120.731476 473.8875 119.950226Q473.8875 119.4971 474.09064 119.1221Q474.29376 118.731476 474.6375 118.512726Q474.98126 118.27835 475.40314 118.168976Q475.7 118.075226 476.34064 117.9971Q477.60626 117.856476 478.21564 117.637726Q478.21564 117.418976 478.21564 117.3721Q478.21564 116.71585 477.91876 116.450226Q477.5125 116.106476 476.71564 116.106476Q475.98126 116.106476 475.6219 116.3721Q475.2625 116.6221 475.09064 117.27835L474.0594 117.137726Q474.2 116.481476 474.52814 116.075226Q474.85626 115.668976 475.46564 115.450226Q476.075 115.231476 476.8719 115.231476Q477.66876 115.231476 478.16876 115.418976Q478.66876 115.606476 478.90314 115.887726Q479.1375 116.168976 479.23126 116.606476Q479.27814 116.8721 479.27814 117.575226L479.27814 118.981476Q479.27814 120.450226 479.34064 120.84085Q479.41876 121.231476 479.6219 121.59085L478.5125 121.59085Q478.35626 121.262726 478.3094 120.825226ZM478.21564 118.46585Q477.6375 118.700226 476.4969 118.8721Q475.84064 118.96585 475.575 119.09085Q475.3094 119.200226 475.15314 119.418976Q475.0125 119.637726 475.0125 119.918976Q475.0125 120.34085 475.325 120.6221Q475.65314 120.90335 476.2625 120.90335Q476.8719 120.90335 477.34064 120.637726Q477.825 120.3721 478.04376 119.90335Q478.21564 119.543976 478.21564 118.856476L478.21564 118.46585ZM481.2469 121.59085L481.2469 115.3721L482.1844 115.3721L482.1844 116.2471Q482.48126 115.77835 482.96564 115.512726Q483.45 115.231476 484.075 115.231476Q484.7625 115.231476 485.2 115.512726Q485.65314 115.793976 485.825 116.3096Q486.575 115.231476 487.7469 115.231476Q488.6844 115.231476 489.16876 115.7471Q489.66876 116.2471 489.66876 117.325226L489.66876 121.59085L488.6219 121.59085L488.6219 117.668976Q488.6219 117.043976 488.5125 116.762726Q488.41876 116.481476 488.15314 116.3096Q487.8875 116.137726 487.5125 116.137726Q486.85626 116.137726 486.41876 116.575226Q485.9969 117.012726 485.9969 117.981476L485.9969 121.59085L484.9344 121.59085L484.9344 117.543976Q484.9344 116.84085 484.66876 116.4971Q484.41876 116.137726 483.84064 116.137726Q483.3875 116.137726 483.0125 116.3721Q482.6375 116.606476 482.46564 117.0596Q482.29376 117.512726 482.29376 118.356476L482.29376 121.59085L481.2469 121.59085Z" fill-rule="nonzero"/><path fill="#9e9e9e" d="M456.95 136.32523L458.0125 136.1846Q458.1844 137.07523 458.6219 137.48148Q459.0594 137.8721 459.6844 137.8721Q460.4344 137.8721 460.95 137.35648Q461.46564 136.84085 461.46564 136.07523Q461.46564 135.35648 460.98126 134.88773Q460.5125 134.40335 459.77814 134.40335Q459.48126 134.40335 459.02814 134.52835L459.15314 133.59085Q459.2625 133.60648 459.325 133.60648Q459.9969 133.60648 460.52814 133.26273Q461.075 132.90335 461.075 132.16898Q461.075 131.59085 460.6844 131.21585Q460.29376 130.82523 459.66876 130.82523Q459.0594 130.82523 458.6375 131.21585Q458.23126 131.60648 458.1219 132.3721L457.0594 132.1846Q457.2469 131.13773 457.9344 130.5596Q458.6219 129.96585 459.6375 129.96585Q460.34064 129.96585 460.9344 130.27835Q461.52814 130.57523 461.84064 131.09085Q462.15314 131.60648 462.15314 132.20023Q462.15314 132.7471 461.85626 133.21585Q461.5594 133.66898 460.98126 133.9346Q461.73126 134.10648 462.15314 134.66898Q462.575 135.21585 462.575 136.0596Q462.575 137.1846 461.7469 137.96585Q460.9344 138.7471 459.6844 138.7471Q458.5594 138.7471 457.8094 138.07523Q457.0594 137.38773 456.95 136.32523ZM467.91876 138.59085L466.8719 138.59085L466.8719 131.8721Q466.48126 132.23148 465.85626 132.60648Q465.2469 132.96585 464.7625 133.13773L464.7625 132.1221Q465.6375 131.70023 466.29376 131.1221Q466.96564 130.52835 467.2469 129.96585L467.91876 129.96585L467.91876 138.59085ZM471.54376 138.59085L471.54376 137.38773L472.7469 137.38773L472.7469 138.59085L471.54376 138.59085ZM473.95 136.34085L475.0594 136.2471Q475.1844 137.0596 475.6219 137.46585Q476.075 137.8721 476.71564 137.8721Q477.46564 137.8721 477.9969 137.29398Q478.52814 136.71585 478.52814 135.77835Q478.52814 134.8721 478.0125 134.35648Q477.5125 133.82523 476.6844 133.82523Q476.1844 133.82523 475.7625 134.0596Q475.35626 134.29398 475.1219 134.65335L474.1375 134.52835L474.96564 130.1221L479.2469 130.1221L479.2469 131.1221L475.8094 131.1221L475.35626 133.4346Q476.1219 132.88773 476.96564 132.88773Q478.09064 132.88773 478.85626 133.66898Q479.6375 134.45023 479.6375 135.6846Q479.6375 136.84085 478.96564 137.70023Q478.1375 138.73148 476.71564 138.73148Q475.54376 138.73148 474.79376 138.07523Q474.0594 137.41898 473.95 136.34085ZM481.15314 132.0596Q481.15314 131.13773 481.60626 130.4971Q482.075 129.85648 482.95 129.85648Q483.7625 129.85648 484.29376 130.4346Q484.825 131.01273 484.825 132.1221Q484.825 133.21585 484.27814 133.8096Q483.7469 134.38773 482.96564 134.38773Q482.1844 134.38773 481.66876 133.8096Q481.15314 133.23148 481.15314 132.0596ZM482.98126 130.57523Q482.59064 130.57523 482.325 130.91898Q482.075 131.26273 482.075 132.16898Q482.075 132.9971 482.325 133.34085Q482.59064 133.66898 482.98126 133.66898Q483.3875 133.66898 483.6375 133.32523Q483.90314 132.98148 483.90314 132.09085Q483.90314 131.2471 483.6375 130.91898Q483.3719 130.57523 482.98126 130.57523ZM482.98126 138.90335L487.6844 129.85648L488.54376 129.85648L483.85626 138.90335L482.98126 138.90335ZM486.7 136.57523Q486.7 135.65335 487.15314 135.01273Q487.6219 134.3721 488.5125 134.3721Q489.325 134.3721 489.85626 134.95023Q490.3875 135.51273 490.3875 136.63773Q490.3875 137.73148 489.84064 138.32523Q489.3094 138.90335 488.5125 138.90335Q487.7469 138.90335 487.21564 138.32523Q486.7 137.7471 486.7 136.57523ZM488.54376 135.09085Q488.1375 135.09085 487.8719 135.4346Q487.6219 135.77835 487.6219 136.6846Q487.6219 137.4971 487.8875 137.84085Q488.15314 138.1846 488.54376 138.1846Q488.9344 138.1846 489.2 137.84085Q489.46564 137.4971 489.46564 136.59085Q489.46564 135.76273 489.2 135.4346Q488.9344 135.09085 488.54376 135.09085Z" fill-rule="nonzero"/><path stroke="#757575" stroke-width="1.0" stroke-linecap="butt" d="M491.45 126.09085L409.76666 126.09085L373.12326 126.09085" fill-rule="nonzero"/><path fill="#9e9e9e" d="M375.12326 126.09085C375.12326 124.98628 374.22784 124.09085 373.12326 124.09085C372.01868 124.09085 371.12326 124.98628 371.12326 126.09085C371.12326 127.19542 372.01868 128.09085 373.12326 128.09085C374.22784 128.09085 375.12326 127.19542 375.12326 126.09085" fill-rule="nonzero"/><path fill="#1a1a1a" d="M422.40314 332.45L422.40314 323.85626L428.60626 323.85626L428.60626 324.8719L423.54376 324.8719L423.54376 327.4969L428.29376 327.4969L428.29376 328.5125L423.54376 328.5125L423.54376 331.4344L428.8094 331.4344L428.8094 332.45L422.40314 332.45ZM434.3094 331.6844Q433.71564 332.1844 433.16876 332.3875Q432.6375 332.59064 432.0125 332.59064Q430.98126 332.59064 430.4344 332.09064Q429.8875 331.59064 429.8875 330.8094Q429.8875 330.35626 430.09064 329.98126Q430.29376 329.59064 430.6375 329.3719Q430.98126 329.1375 431.40314 329.02814Q431.7 328.9344 432.34064 328.85626Q433.60626 328.71564 434.21564 328.4969Q434.21564 328.27814 434.21564 328.23126Q434.21564 327.575 433.91876 327.3094Q433.5125 326.96564 432.71564 326.96564Q431.98126 326.96564 431.6219 327.23126Q431.2625 327.48126 431.09064 328.1375L430.0594 327.9969Q430.2 327.34064 430.52814 326.9344Q430.85626 326.52814 431.46564 326.3094Q432.075 326.09064 432.8719 326.09064Q433.66876 326.09064 434.16876 326.27814Q434.66876 326.46564 434.90314 326.7469Q435.1375 327.02814 435.23126 327.46564Q435.27814 327.73126 435.27814 328.4344L435.27814 329.84064Q435.27814 331.3094 435.34064 331.7Q435.41876 332.09064 435.6219 332.45L434.5125 332.45Q434.35626 332.1219 434.3094 331.6844ZM434.21564 329.325Q433.6375 329.5594 432.4969 329.73126Q431.84064 329.825 431.575 329.95Q431.3094 330.0594 431.15314 330.27814Q431.0125 330.4969 431.0125 330.77814Q431.0125 331.2 431.325 331.48126Q431.65314 331.7625 432.2625 331.7625Q432.8719 331.7625 433.34064 331.4969Q433.825 331.23126 434.04376 330.7625Q434.21564 330.40314 434.21564 329.71564L434.21564 329.325ZM437.23126 332.45L437.23126 326.23126L438.1844 326.23126L438.1844 327.16876Q438.54376 326.5125 438.84064 326.3094Q439.15314 326.09064 439.52814 326.09064Q440.0594 326.09064 440.60626 326.41876L440.2469 327.40314Q439.85626 327.16876 439.48126 327.16876Q439.1219 327.16876 438.84064 327.3875Q438.575 327.59064 438.46564 327.96564Q438.27814 328.52814 438.27814 329.1844L438.27814 332.45L437.23126 332.45ZM441.21564 332.45L441.21564 323.85626L442.27814 323.85626L442.27814 332.45L441.21564 332.45ZM444.2 334.84064L444.075 333.85626Q444.41876 333.95 444.6844 333.95Q445.02814 333.95 445.23126 333.825Q445.45 333.71564 445.59064 333.5125Q445.6844 333.34064 445.91876 332.71564Q445.9344 332.6375 446.0125 332.46564L443.6375 326.23126L444.77814 326.23126L446.075 329.825Q446.325 330.5125 446.52814 331.27814Q446.71564 330.54376 446.96564 329.85626L448.29376 326.23126L449.34064 326.23126L446.98126 332.5594Q446.59064 333.575 446.3875 333.96564Q446.10626 334.4969 445.73126 334.73126Q445.3719 334.98126 444.8719 334.98126Q444.575 334.98126 444.2 334.84064ZM456.3094 330.16876L457.34064 330.3094Q457.16876 331.3719 456.46564 331.98126Q455.7625 332.59064 454.7469 332.59064Q453.46564 332.59064 452.6844 331.7625Q451.91876 330.91876 451.91876 329.35626Q451.91876 328.35626 452.2469 327.60626Q452.59064 326.84064 453.2625 326.46564Q453.95 326.09064 454.7625 326.09064Q455.7625 326.09064 456.40314 326.60626Q457.0594 327.10626 457.2469 328.0594L456.21564 328.21564Q456.075 327.59064 455.7 327.27814Q455.325 326.95 454.79376 326.95Q453.9969 326.95 453.4969 327.52814Q452.9969 328.09064 452.9969 329.325Q452.9969 330.59064 453.48126 331.15314Q453.96564 331.71564 454.73126 331.71564Q455.35626 331.71564 455.7625 331.34064Q456.1844 330.96564 456.3094 330.16876ZM457.85626 329.34064Q457.85626 327.60626 458.8094 326.77814Q459.60626 326.09064 460.7625 326.09064Q462.04376 326.09064 462.85626 326.9344Q463.6844 327.7625 463.6844 329.2469Q463.6844 330.45 463.325 331.1375Q462.96564 331.825 462.2625 332.21564Q461.575 332.59064 460.7625 332.59064Q459.46564 332.59064 458.65314 331.7625Q457.85626 330.91876 457.85626 329.34064ZM458.9344 329.34064Q458.9344 330.52814 459.45 331.1219Q459.98126 331.71564 460.7625 331.71564Q461.5594 331.71564 462.075 331.1219Q462.59064 330.52814 462.59064 329.3094Q462.59064 328.15314 462.0594 327.5594Q461.54376 326.96564 460.7625 326.96564Q459.98126 326.96564 459.45 327.5594Q458.9344 328.1375 458.9344 329.34064ZM465.2469 332.45L465.2469 326.23126L466.1844 326.23126L466.1844 327.10626Q466.8719 326.09064 468.16876 326.09064Q468.73126 326.09064 469.2 326.29376Q469.6844 326.4969 469.91876 326.825Q470.15314 327.15314 470.2469 327.59064Q470.29376 327.8875 470.29376 328.6219L470.29376 332.45L469.2469 332.45L469.2469 328.66876Q469.2469 328.0125 469.1219 327.7Q468.9969 327.3875 468.6844 327.2Q468.3719 326.9969 467.95 326.9969Q467.27814 326.9969 466.77814 327.4344Q466.29376 327.85626 466.29376 329.04376L466.29376 332.45L465.2469 332.45ZM474.54376 331.5125L474.7 332.4344Q474.2469 332.52814 473.90314 332.52814Q473.325 332.52814 473.0125 332.35626Q472.7 332.16876 472.5594 331.8719Q472.4344 331.575 472.4344 330.6219L472.4344 327.04376L471.66876 327.04376L471.66876 326.23126L472.4344 326.23126L472.4344 324.6844L473.48126 324.0594L473.48126 326.23126L474.54376 326.23126L474.54376 327.04376L473.48126 327.04376L473.48126 330.6844Q473.48126 331.1375 473.52814 331.2625Q473.59064 331.3875 473.71564 331.46564Q473.84064 331.54376 474.075 331.54376Q474.2625 331.54376 474.54376 331.5125ZM475.23126 332.45L475.23126 326.23126L476.1844 326.23126L476.1844 327.16876Q476.54376 326.5125 476.84064 326.3094Q477.15314 326.09064 477.52814 326.09064Q478.0594 326.09064 478.60626 326.41876L478.2469 327.40314Q477.85626 327.16876 477.48126 327.16876Q477.1219 327.16876 476.84064 327.3875Q476.575 327.59064 476.46564 327.96564Q476.27814 328.52814 476.27814 329.1844L476.27814 332.45L475.23126 332.45ZM479.2469 325.075L479.2469 323.85626L480.3094 323.85626L480.3094 325.075L479.2469 325.075ZM479.2469 332.45L479.2469 326.23126L480.3094 326.23126L480.3094 332.45L479.2469 332.45ZM483.21564 332.45L482.23126 332.45L482.23126 323.85626L483.29376 323.85626L483.29376 326.91876Q483.96564 326.09064 484.9969 326.09064Q485.575 326.09064 486.075 326.325Q486.59064 326.54376 486.91876 326.96564Q487.2625 327.3875 487.45 327.98126Q487.6375 328.575 487.6375 329.2469Q487.6375 330.84064 486.84064 331.71564Q486.04376 332.59064 484.95 332.59064Q483.84064 332.59064 483.21564 331.66876L483.21564 332.45ZM483.2 329.29376Q483.2 330.40314 483.5125 330.90314Q484.0125 331.71564 484.85626 331.71564Q485.54376 331.71564 486.04376 331.1219Q486.5594 330.52814 486.5594 329.325Q486.5594 328.10626 486.075 327.52814Q485.59064 326.95 484.90314 326.95Q484.21564 326.95 483.7 327.5594Q483.2 328.15314 483.2 329.29376ZM489.54376 332.45L489.54376 331.2469L490.7469 331.2469L490.7469 332.45L489.54376 332.45Z" fill-rule="nonzero"/><path fill="#9e9e9e" d="M456.95 347.1844L458.0125 347.04376Q458.1844 347.9344 458.6219 348.34064Q459.0594 348.73126 459.6844 348.73126Q460.4344 348.73126 460.95 348.21564Q461.46564 347.7 461.46564 346.9344Q461.46564 346.21564 460.98126 345.7469Q460.5125 345.2625 459.77814 345.2625Q459.48126 345.2625 459.02814 345.3875L459.15314 344.45Q459.2625 344.46564 459.325 344.46564Q459.9969 344.46564 460.52814 344.1219Q461.075 343.7625 461.075 343.02814Q461.075 342.45 460.6844 342.075Q460.29376 341.6844 459.66876 341.6844Q459.0594 341.6844 458.6375 342.075Q458.23126 342.46564 458.1219 343.23126L457.0594 343.04376Q457.2469 341.9969 457.9344 341.41876Q458.6219 340.825 459.6375 340.825Q460.34064 340.825 460.9344 341.1375Q461.52814 341.4344 461.84064 341.95Q462.15314 342.46564 462.15314 343.0594Q462.15314 343.60626 461.85626 344.075Q461.5594 344.52814 460.98126 344.79376Q461.73126 344.96564 462.15314 345.52814Q462.575 346.075 462.575 346.91876Q462.575 348.04376 461.7469 348.825Q460.9344 349.60626 459.6844 349.60626Q458.5594 349.60626 457.8094 348.9344Q457.0594 348.2469 456.95 347.1844ZM467.91876 349.45L466.8719 349.45L466.8719 342.73126Q466.48126 343.09064 465.85626 343.46564Q465.2469 343.825 464.7625 343.9969L464.7625 342.98126Q465.6375 342.5594 466.29376 341.98126Q466.96564 341.3875 467.2469 340.825L467.91876 340.825L467.91876 349.45ZM471.54376 349.45L471.54376 348.2469L472.7469 348.2469L472.7469 349.45L471.54376 349.45ZM473.95 347.2L475.0594 347.10626Q475.1844 347.91876 475.6219 348.325Q476.075 348.73126 476.71564 348.73126Q477.46564 348.73126 477.9969 348.15314Q478.52814 347.575 478.52814 346.6375Q478.52814 345.73126 478.0125 345.21564Q477.5125 344.6844 476.6844 344.6844Q476.1844 344.6844 475.7625 344.91876Q475.35626 345.15314 475.1219 345.5125L474.1375 345.3875L474.96564 340.98126L479.2469 340.98126L479.2469 341.98126L475.8094 341.98126L475.35626 344.29376Q476.1219 343.7469 476.96564 343.7469Q478.09064 343.7469 478.85626 344.52814Q479.6375 345.3094 479.6375 346.54376Q479.6375 347.7 478.96564 348.5594Q478.1375 349.59064 476.71564 349.59064Q475.54376 349.59064 474.79376 348.9344Q474.0594 348.27814 473.95 347.2ZM481.15314 342.91876Q481.15314 341.9969 481.60626 341.35626Q482.075 340.71564 482.95 340.71564Q483.7625 340.71564 484.29376 341.29376Q484.825 341.8719 484.825 342.98126Q484.825 344.075 484.27814 344.66876Q483.7469 345.2469 482.96564 345.2469Q482.1844 345.2469 481.66876 344.66876Q481.15314 344.09064 481.15314 342.91876ZM482.98126 341.4344Q482.59064 341.4344 482.325 341.77814Q482.075 342.1219 482.075 343.02814Q482.075 343.85626 482.325 344.2Q482.59064 344.52814 482.98126 344.52814Q483.3875 344.52814 483.6375 344.1844Q483.90314 343.84064 483.90314 342.95Q483.90314 342.10626 483.6375 341.77814Q483.3719 341.4344 482.98126 341.4344ZM482.98126 349.7625L487.6844 340.71564L488.54376 340.71564L483.85626 349.7625L482.98126 349.7625ZM486.7 347.4344Q486.7 346.5125 487.15314 345.8719Q487.6219 345.23126 488.5125 345.23126Q489.325 345.23126 489.85626 345.8094Q490.3875 346.3719 490.3875 347.4969Q490.3875 348.59064 489.84064 349.1844Q489.3094 349.7625 488.5125 349.7625Q487.7469 349.7625 487.21564 349.1844Q486.7 348.60626 486.7 347.4344ZM488.54376 345.95Q488.1375 345.95 487.8719 346.29376Q487.6219 346.6375 487.6219 347.54376Q487.6219 348.35626 487.8875 348.7Q488.15314 349.04376 488.54376 349.04376Q488.9344 349.04376 489.2 348.7Q489.46564 348.35626 489.46564 347.45Q489.46564 346.6219 489.2 346.29376Q488.9344 345.95 488.54376 345.95Z" fill-rule="nonzero"/><path stroke="#757575" stroke-width="1.0" stroke-linecap="butt" d="M491.45 336.95L409.76666 336.95L279.29846 342.9072" fill-rule="nonzero"/><path fill="#9e9e9e" d="M281.29846 342.9072C281.29846 341.8026 280.403 340.9072 279.29846 340.9072C278.19388 340.9072 277.29846 341.8026 277.29846 342.9072C277.29846 344.01175 278.19388 344.9072 279.29846 344.9072C280.403 344.9072 281.29846 344.01175 281.29846 342.9072" fill-rule="nonzero"/><path fill="#757575" d="M20.128124 37.55L20.128124 23.2375L30.4875 23.2375L30.4875 24.925L22.034374 24.925L22.034374 29.3L29.940624 29.3L29.940624 30.9875L22.034374 30.9875L22.034374 35.8625L30.815624 35.8625L30.815624 37.55L20.128124 37.55ZM33.01875 37.55L33.01875 23.2375L34.909374 23.2375L34.909374 35.8625L41.95625 35.8625L41.95625 37.55L33.01875 37.55ZM43.51875 30.58125Q43.51875 27.01875 45.425 25.003124Q47.346874 22.971874 50.378124 22.971874Q52.3625 22.971874 53.940624 23.925Q55.534374 24.878124 56.3625 26.58125Q57.20625 28.26875 57.20625 30.409374Q57.20625 32.58125 56.33125 34.3Q55.45625 36.01875 53.83125 36.909374Q52.221874 37.8 50.3625 37.8Q48.346874 37.8 46.753124 36.83125Q45.159374 35.846874 44.33125 34.159374Q43.51875 32.45625 43.51875 30.58125ZM45.471874 30.6125Q45.471874 33.190624 46.8625 34.690624Q48.253124 36.175 50.346874 36.175Q52.4875 36.175 53.8625 34.675Q55.253124 33.159374 55.253124 30.39375Q55.253124 28.659374 54.659374 27.3625Q54.08125 26.05 52.940624 25.33125Q51.8 24.6125 50.378124 24.6125Q48.378124 24.6125 46.925 26.003124Q45.471874 27.378124 45.471874 30.6125ZM63.7375 37.55L63.7375 24.925L59.01875 24.925L59.01875 23.2375L70.3625 23.2375L70.3625 24.925L65.62813 24.925L65.62813 37.55L63.7375 37.55ZM76.51875 37.55L82.01875 23.2375L84.06563 23.2375L89.925 37.55L87.76875 37.55L86.09688 33.20625L80.1125 33.20625L78.53438 37.55L76.51875 37.55ZM80.65938 31.675L85.50313 31.675L84.01875 27.70625Q83.33125 25.89375 83.00313 24.7375Q82.72188 26.1125 82.22188 27.471874L80.65938 31.675ZM90.83125 37.55L90.83125 23.2375L92.58125 23.2375L92.58125 37.55L90.83125 37.55ZM94.83125 37.55L94.83125 23.2375L96.58125 23.2375L96.58125 37.55L94.83125 37.55ZM98.22188 32.3625Q98.22188 29.4875 99.81563 28.096874Q101.15938 26.940624 103.08125 26.940624Q105.22188 26.940624 106.56563 28.346874Q107.925 29.753124 107.925 32.221874Q107.925 34.221874 107.33125 35.378124Q106.7375 36.51875 105.58125 37.159374Q104.44063 37.784374 103.08125 37.784374Q100.89375 37.784374 99.55 36.39375Q98.22188 34.9875 98.22188 32.3625ZM100.01875 32.3625Q100.01875 34.3625 100.87813 35.346874Q101.75313 36.33125 103.08125 36.33125Q104.39375 36.33125 105.25313 35.346874Q106.12813 34.346874 106.12813 32.3Q106.12813 30.378124 105.25313 29.39375Q104.37813 28.39375 103.08125 28.39375Q101.75313 28.39375 100.87813 29.39375Q100.01875 30.378124 100.01875 32.3625ZM116.64375 33.753124L118.3625 33.971874Q118.08125 35.76875 116.90938 36.784374Q115.75313 37.784374 114.05 37.784374Q111.925 37.784374 110.62813 36.39375Q109.33125 35.003124 109.33125 32.409374Q109.33125 30.721874 109.87813 29.471874Q110.44063 28.20625 111.58125 27.58125Q112.72188 26.940624 114.06563 26.940624Q115.75313 26.940624 116.81563 27.8Q117.89375 28.659374 118.20625 30.221874L116.4875 30.4875Q116.25313 29.440624 115.62813 28.925Q115.00313 28.39375 114.12813 28.39375Q112.8 28.39375 111.97188 29.346874Q111.14375 30.3 111.14375 32.346874Q111.14375 34.440624 111.94063 35.39375Q112.7375 36.33125 114.03438 36.33125Q115.06563 36.33125 115.75313 35.70625Q116.45625 35.065624 116.64375 33.753124ZM126.64375 36.26875Q125.65938 37.096874 124.75313 37.440624Q123.84688 37.784374 122.81563 37.784374Q121.1125 37.784374 120.19063 36.95625Q119.26875 36.1125 119.26875 34.815624Q119.26875 34.05 119.6125 33.425Q119.97188 32.8 120.53438 32.425Q121.09688 32.034374 121.8 31.83125Q122.31563 31.70625 123.3625 31.565624Q125.4875 31.315624 126.4875 30.971874Q126.50313 30.6125 126.50313 30.503124Q126.50313 29.440624 126.00313 28.9875Q125.33125 28.39375 124.00313 28.39375Q122.75313 28.39375 122.15938 28.83125Q121.58125 29.26875 121.3 30.378124L119.58125 30.14375Q119.81563 29.034374 120.34688 28.3625Q120.87813 27.675 121.89375 27.315624Q122.90938 26.940624 124.25313 26.940624Q125.58125 26.940624 126.40938 27.253124Q127.2375 27.565624 127.62813 28.05Q128.01875 28.51875 128.175 29.2375Q128.26875 29.690624 128.26875 30.8625L128.26875 33.20625Q128.26875 35.659374 128.37813 36.315624Q128.4875 36.95625 128.83125 37.55L126.9875 37.55Q126.72188 37.003124 126.64375 36.26875ZM126.4875 32.346874Q125.53438 32.7375 123.6125 33.003124Q122.53438 33.159374 122.08125 33.3625Q121.64375 33.55 121.39375 33.925Q121.14375 34.3 121.14375 34.76875Q121.14375 35.471874 121.675 35.940624Q122.20625 36.409374 123.2375 36.409374Q124.25313 36.409374 125.03438 35.971874Q125.83125 35.51875 126.20625 34.753124Q126.4875 34.14375 126.4875 32.9875L126.4875 32.346874ZM134.70625 35.971874L134.95625 37.534374Q134.22188 37.690624 133.62813 37.690624Q132.675 37.690624 132.14375 37.39375Q131.62813 37.08125 131.40938 36.596874Q131.19063 36.096874 131.19063 34.51875L131.19063 28.55L129.90938 28.55L129.90938 27.175L131.19063 27.175L131.19063 24.6125L132.94063 23.55L132.94063 27.175L134.70625 27.175L134.70625 28.55L132.94063 28.55L132.94063 34.6125Q132.94063 35.3625 133.03438 35.58125Q133.12813 35.784374 133.33125 35.925Q133.55 36.05 133.94063 36.05Q134.22188 36.05 134.70625 35.971874ZM136.87813 25.253124L136.87813 23.2375L138.64375 23.2375L138.64375 25.253124L136.87813 25.253124ZM136.87813 37.55L136.87813 27.175L138.64375 27.175L138.64375 37.55L136.87813 37.55ZM140.22188 32.3625Q140.22188 29.4875 141.81563 28.096874Q143.15938 26.940624 145.08125 26.940624Q147.22188 26.940624 148.56563 28.346874Q149.925 29.753124 149.925 32.221874Q149.925 34.221874 149.33125 35.378124Q148.7375 36.51875 147.58125 37.159374Q146.44063 37.784374 145.08125 37.784374Q142.89375 37.784374 141.55 36.39375Q140.22188 34.9875 140.22188 32.3625ZM142.01875 32.3625Q142.01875 34.3625 142.87813 35.346874Q143.75313 36.33125 145.08125 36.33125Q146.39375 36.33125 147.25313 35.346874Q148.12813 34.346874 148.12813 32.3Q148.12813 30.378124 147.25313 29.39375Q146.37813 28.39375 145.08125 28.39375Q143.75313 28.39375 142.87813 29.39375Q142.01875 30.378124 142.01875 32.3625ZM151.8625 37.55L151.8625 27.175L153.45625 27.175L153.45625 28.659374Q154.59688 26.940624 156.75313 26.940624Q157.69063 26.940624 158.47188 27.284374Q159.26875 27.6125 159.65938 28.159374Q160.05 28.70625 160.20625 29.45625Q160.3 29.95625 160.3 31.175L160.3 37.55L158.53438 37.55L158.53438 31.2375Q158.53438 30.159374 158.33125 29.628124Q158.12813 29.096874 157.59688 28.784374Q157.08125 28.471874 156.37813 28.471874Q155.25313 28.471874 154.44063 29.190624Q153.62813 29.89375 153.62813 31.878124L153.62813 37.55L151.8625 37.55Z" fill-rule="nonzero"/></svg>