<svg version="1.1" viewBox="0.0 0.0 510.0 371.0" fill="none" stroke="none" stroke-linecap="square" stroke-miterlimit="10" width="510" height="371" xmlns:xlink="http://www.w3.org/1999/xlink" xmlns="http://www.w3.org/2000/svg"><path fill="#ffffff" d="M0 0L510.0 0L510.0 371.0L0 371.0L0 0Z" fill-rule="nonzero"/><path fill="#4285f4" d="M255.0 54.916668C337.16156 54.916668 403.76666 121.521774 403.76666 203.68333C403.76666 285.8449 337.16156 352.45 255.0 352.45L255.0 278.06668C296.08078 278.06668 329.38333 244.76411 329.38333 203.68333C329.38333 162.60255 296.08078 129.3 255.0 129.3Z" fill-rule="nonzero"/><path fill="#34a853" d="M255.0 352.45C172.83844 352.45 106.23333 285.8449 106.23333 203.68333C106.23333 121.521774 172.83844 54.916668 255.0 54.916668L255.0 129.3C213.91922 129.3 180.61667 162.60255 180.61667 203.68333C180.61667 244.76411 213.91922 278.06668 255.0 278.06668Z" fill-rule="nonzero"/><path fill="#1a1a1a" d="M19.425 199.18333L19.425 190.58958L20.565624 190.58958L20.565624 198.16771L24.8 198.16771L24.8 199.18333L19.425 199.18333ZM26.471874 199.18333L26.471874 190.58958L29.721874 190.58958Q30.565624 190.58958 31.01875 190.66771Q31.659374 190.77708 32.08125 191.07396Q32.51875 191.37083 32.76875 191.90208Q33.034374 192.43333 33.034374 193.07396Q33.034374 194.16771 32.33125 194.93333Q31.64375 195.68333 29.815624 195.68333L27.6125 195.68333L27.6125 199.18333L26.471874 199.18333ZM27.6125 194.68333L29.83125 194.68333Q30.940624 194.68333 31.39375 194.27708Q31.8625 193.85521 31.8625 193.10521Q31.8625 192.57396 31.58125 192.19896Q31.315624 191.80833 30.878124 191.68333Q30.58125 191.60521 29.815624 191.60521L27.6125 191.60521L27.6125 194.68333Z" fill-rule="nonzero"/><path fill="#9e9e9e" d="M19.05 213.93333L20.159374 213.83958Q20.284374 214.65208 20.721874 215.05833Q21.175 215.46458 21.815624 215.46458Q22.565624 215.46458 23.096874 214.88646Q23.628124 214.30833 23.628124 213.37083Q23.628124 212.46458 23.1125 211.94896Q22.6125 211.41771 21.784374 211.41771Q21.284374 211.41771 20.8625 211.65208Q20.45625 211.88646 20.221874 212.24583L19.2375 212.12083L20.065624 207.71458L24.346874 207.71458L24.346874 208.71458L20.909374 208.71458L20.45625 211.02708Q21.221874 210.48021 22.065624 210.48021Q23.190624 210.48021 23.95625 211.26146Q24.7375 212.04271 24.7375 213.27708Q24.7375 214.43333 24.065624 215.29271Q23.2375 216.32396 21.815624 216.32396Q20.64375 216.32396 19.89375 215.66771Q19.159374 215.01146 19.05 213.93333ZM26.05 211.94896Q26.05 210.41771 26.3625 209.49583Q26.675 208.55833 27.284374 208.05833Q27.909374 207.55833 28.846874 207.55833Q29.534374 207.55833 30.05 207.83958Q30.58125 208.12083 30.925 208.65208Q31.26875 209.16771 31.45625 209.91771Q31.64375 210.66771 31.64375 211.94896Q31.64375 213.46458 31.33125 214.38646Q31.034374 215.30833 30.409374 215.82396Q29.8 216.32396 28.846874 216.32396Q27.6125 216.32396 26.89375 215.43333Q26.05 214.37083 26.05 211.94896ZM27.128124 211.94896Q27.128124 214.05833 27.628124 214.76146Q28.128124 215.46458 28.846874 215.46458Q29.58125 215.46458 30.065624 214.76146Q30.565624 214.05833 30.565624 211.94896Q30.565624 209.82396 30.065624 209.13646Q29.58125 208.43333 28.83125 208.43333Q28.1125 208.43333 27.675 209.04271Q27.128124 209.82396 27.128124 211.94896ZM33.64375 216.18333L33.64375 214.98021L34.846874 214.98021L34.846874 216.18333L33.64375 216.18333ZM36.05 211.94896Q36.05 210.41771 36.3625 209.49583Q36.675 208.55833 37.284374 208.05833Q37.909374 207.55833 38.846874 207.55833Q39.534374 207.55833 40.05 207.83958Q40.58125 208.12083 40.925 208.65208Q41.26875 209.16771 41.45625 209.91771Q41.64375 210.66771 41.64375 211.94896Q41.64375 213.46458 41.33125 214.38646Q41.034374 215.30833 40.409374 215.82396Q39.8 216.32396 38.846874 216.32396Q37.6125 216.32396 36.89375 215.43333Q36.05 214.37083 36.05 211.94896ZM37.128124 211.94896Q37.128124 214.05833 37.628124 214.76146Q38.128124 215.46458 38.846874 215.46458Q39.58125 215.46458 40.065624 214.76146Q40.565624 214.05833 40.565624 211.94896Q40.565624 209.82396 40.065624 209.13646Q39.58125 208.43333 38.83125 208.43333Q38.1125 208.43333 37.675 209.04271Q37.128124 209.82396 37.128124 211.94896ZM43.253124 209.65208Q43.253124 208.73021 43.70625 208.08958Q44.175 207.44896 45.05 207.44896Q45.8625 207.44896 46.39375 208.02708Q46.925 208.60521 46.925 209.71458Q46.925 210.80833 46.378124 211.40208Q45.846874 211.98021 45.065624 211.98021Q44.284374 211.98021 43.76875 211.40208Q43.253124 210.82396 43.253124 209.65208ZM45.08125 208.16771Q44.690624 208.16771 44.425 208.51146Q44.175 208.85521 44.175 209.76146Q44.175 210.58958 44.425 210.93333Q44.690624 211.26146 45.08125 211.26146Q45.4875 211.26146 45.7375 210.91771Q46.003124 210.57396 46.003124 209.68333Q46.003124 208.83958 45.7375 208.51146Q45.471874 208.16771 45.08125 208.16771ZM45.08125 216.49583L49.784374 207.44896L50.64375 207.44896L45.95625 216.49583L45.08125 216.49583ZM48.8 214.16771Q48.8 213.24583 49.253124 212.60521Q49.721874 211.96458 50.6125 211.96458Q51.425 211.96458 51.95625 212.54271Q52.4875 213.10521 52.4875 214.23021Q52.4875 215.32396 51.940624 215.91771Q51.409374 216.49583 50.6125 216.49583Q49.846874 216.49583 49.315624 215.91771Q48.8 215.33958 48.8 214.16771ZM50.64375 212.68333Q50.2375 212.68333 49.971874 213.02708Q49.721874 213.37083 49.721874 214.27708Q49.721874 215.08958 49.9875 215.43333Q50.253124 215.77708 50.64375 215.77708Q51.034374 215.77708 51.3 215.43333Q51.565624 215.08958 51.565624 214.18333Q51.565624 213.35521 51.3 213.02708Q51.034374 212.68333 50.64375 212.68333Z" fill-rule="nonzero"/><path stroke="#757575" stroke-width="1.0" stroke-linecap="butt" d="M18.55 203.68333L100.23333 203.68333L113.67167 203.68333" fill-rule="nonzero"/><path fill="#9e9e9e" d="M115.67167 203.68333C115.67167 202.57877 114.77624 201.68333 113.67167 201.68333C112.5671 201.68333 111.67167 202.57877 111.67167 203.68333C111.67167 204.7879 112.5671 205.68333 113.67167 205.68333C114.77624 205.68333 115.67167 204.7879 115.67167 203.68333" fill-rule="nonzero"/><path fill="#1a1a1a" d="M449.79376 196.74583L450.825 196.60521Q450.85626 197.58958 451.1844 197.94896Q451.5125 198.30833 452.10626 198.30833Q452.52814 198.30833 452.84064 198.12083Q453.15314 197.91771 453.2625 197.58958Q453.3875 197.24583 453.3875 196.51146L453.3875 190.58958L454.5125 190.58958L454.5125 196.44896Q454.5125 197.52708 454.2469 198.12083Q453.9969 198.71458 453.4344 199.02708Q452.8719 199.32396 452.10626 199.32396Q450.98126 199.32396 450.3719 198.68333Q449.77814 198.02708 449.79376 196.74583ZM460.3094 198.41771Q459.71564 198.91771 459.16876 199.12083Q458.6375 199.32396 458.0125 199.32396Q456.98126 199.32396 456.4344 198.82396Q455.8875 198.32396 455.8875 197.54271Q455.8875 197.08958 456.09064 196.71458Q456.29376 196.32396 456.6375 196.10521Q456.98126 195.87083 457.40314 195.76146Q457.7 195.66771 458.34064 195.58958Q459.60626 195.44896 460.21564 195.23021Q460.21564 195.01146 460.21564 194.96458Q460.21564 194.30833 459.91876 194.04271Q459.5125 193.69896 458.71564 193.69896Q457.98126 193.69896 457.6219 193.96458Q457.2625 194.21458 457.09064 194.87083L456.0594 194.73021Q456.2 194.07396 456.52814 193.66771Q456.85626 193.26146 457.46564 193.04271Q458.075 192.82396 458.8719 192.82396Q459.66876 192.82396 460.16876 193.01146Q460.66876 193.19896 460.90314 193.48021Q461.1375 193.76146 461.23126 194.19896Q461.27814 194.46458 461.27814 195.16771L461.27814 196.57396Q461.27814 198.04271 461.34064 198.43333Q461.41876 198.82396 461.6219 199.18333L460.5125 199.18333Q460.35626 198.85521 460.3094 198.41771ZM460.21564 196.05833Q459.6375 196.29271 458.4969 196.46458Q457.84064 196.55833 457.575 196.68333Q457.3094 196.79271 457.15314 197.01146Q457.0125 197.23021 457.0125 197.51146Q457.0125 197.93333 457.325 198.21458Q457.65314 198.49583 458.2625 198.49583Q458.8719 198.49583 459.34064 198.23021Q459.825 197.96458 460.04376 197.49583Q460.21564 197.13646 460.21564 196.44896L460.21564 196.05833ZM467.3094 196.90208L468.34064 197.04271Q468.16876 198.10521 467.46564 198.71458Q466.7625 199.32396 465.7469 199.32396Q464.46564 199.32396 463.6844 198.49583Q462.91876 197.65208 462.91876 196.08958Q462.91876 195.08958 463.2469 194.33958Q463.59064 193.57396 464.2625 193.19896Q464.95 192.82396 465.7625 192.82396Q466.7625 192.82396 467.40314 193.33958Q468.0594 193.83958 468.2469 194.79271L467.21564 194.94896Q467.075 194.32396 466.7 194.01146Q466.325 193.68333 465.79376 193.68333Q464.9969 193.68333 464.4969 194.26146Q463.9969 194.82396 463.9969 196.05833Q463.9969 197.32396 464.48126 197.88646Q464.96564 198.44896 465.73126 198.44896Q466.35626 198.44896 466.7625 198.07396Q467.1844 197.69896 467.3094 196.90208ZM469.2469 199.18333L469.2469 190.58958L470.3094 190.58958L470.3094 195.49583L472.79376 192.96458L474.16876 192.96458L471.77814 195.26146L474.40314 199.18333L473.10626 199.18333L471.04376 195.99583L470.3094 196.71458L470.3094 199.18333L469.2469 199.18333ZM475.2469 201.57396L475.2469 192.96458L476.2 192.96458L476.2 193.76146Q476.54376 193.29271 476.96564 193.05833Q477.40314 192.82396 478.0125 192.82396Q478.8094 192.82396 479.41876 193.23021Q480.02814 193.63646 480.325 194.38646Q480.6375 195.13646 480.6375 196.02708Q480.6375 196.98021 480.29376 197.74583Q479.96564 198.51146 479.3094 198.91771Q478.65314 199.32396 477.9344 199.32396Q477.40314 199.32396 476.98126 199.10521Q476.5594 198.87083 476.29376 198.54271L476.29376 201.57396L475.2469 201.57396ZM476.2 196.10521Q476.2 197.30833 476.6844 197.88646Q477.16876 198.44896 477.85626 198.44896Q478.5594 198.44896 479.0594 197.85521Q479.5594 197.26146 479.5594 196.01146Q479.5594 194.82396 479.075 194.24583Q478.59064 193.65208 477.90314 193.65208Q477.23126 193.65208 476.71564 194.27708Q476.2 194.90208 476.2 196.10521ZM481.85626 196.07396Q481.85626 194.33958 482.8094 193.51146Q483.60626 192.82396 484.7625 192.82396Q486.04376 192.82396 486.85626 193.66771Q487.6844 194.49583 487.6844 195.98021Q487.6844 197.18333 487.325 197.87083Q486.96564 198.55833 486.2625 198.94896Q485.575 199.32396 484.7625 199.32396Q483.46564 199.32396 482.65314 198.49583Q481.85626 197.65208 481.85626 196.07396ZM482.9344 196.07396Q482.9344 197.26146 483.45 197.85521Q483.98126 198.44896 484.7625 198.44896Q485.5594 198.44896 486.075 197.85521Q486.59064 197.26146 486.59064 196.04271Q486.59064 194.88646 486.0594 194.29271Q485.54376 193.69896 484.7625 193.69896Q483.98126 193.69896 483.45 194.29271Q482.9344 194.87083 482.9344 196.07396ZM491.54376 198.24583L491.7 199.16771Q491.2469 199.26146 490.90314 199.26146Q490.325 199.26146 490.0125 199.08958Q489.7 198.90208 489.5594 198.60521Q489.4344 198.30833 489.4344 197.35521L489.4344 193.77708L488.66876 193.77708L488.66876 192.96458L489.4344 192.96458L489.4344 191.41771L490.48126 190.79271L490.48126 192.96458L491.54376 192.96458L491.54376 193.77708L490.48126 193.77708L490.48126 197.41771Q490.48126 197.87083 490.52814 197.99583Q490.59064 198.12083 490.71564 198.19896Q490.84064 198.27708 491.075 198.27708Q491.2625 198.27708 491.54376 198.24583Z" fill-rule="nonzero"/><path fill="#9e9e9e" d="M456.95 213.93333L458.0594 213.83958Q458.1844 214.65208 458.6219 215.05833Q459.075 215.46458 459.71564 215.46458Q460.46564 215.46458 460.9969 214.88646Q461.52814 214.30833 461.52814 213.37083Q461.52814 212.46458 461.0125 211.94896Q460.5125 211.41771 459.6844 211.41771Q459.1844 211.41771 458.7625 211.65208Q458.35626 211.88646 458.1219 212.24583L457.1375 212.12083L457.96564 207.71458L462.2469 207.71458L462.2469 208.71458L458.8094 208.71458L458.35626 211.02708Q459.1219 210.48021 459.96564 210.48021Q461.09064 210.48021 461.85626 211.26146Q462.6375 212.04271 462.6375 213.27708Q462.6375 214.43333 461.96564 215.29271Q461.1375 216.32396 459.71564 216.32396Q458.54376 216.32396 457.79376 215.66771Q457.0594 215.01146 456.95 213.93333ZM463.95 211.94896Q463.95 210.41771 464.2625 209.49583Q464.575 208.55833 465.1844 208.05833Q465.8094 207.55833 466.7469 207.55833Q467.4344 207.55833 467.95 207.83958Q468.48126 208.12083 468.825 208.65208Q469.16876 209.16771 469.35626 209.91771Q469.54376 210.66771 469.54376 211.94896Q469.54376 213.46458 469.23126 214.38646Q468.9344 215.30833 468.3094 215.82396Q467.7 216.32396 466.7469 216.32396Q465.5125 216.32396 464.79376 215.43333Q463.95 214.37083 463.95 211.94896ZM465.02814 211.94896Q465.02814 214.05833 465.52814 214.76146Q466.02814 215.46458 466.7469 215.46458Q467.48126 215.46458 467.96564 214.76146Q468.46564 214.05833 468.46564 211.94896Q468.46564 209.82396 467.96564 209.13646Q467.48126 208.43333 466.73126 208.43333Q466.0125 208.43333 465.575 209.04271Q465.02814 209.82396 465.02814 211.94896ZM471.54376 216.18333L471.54376 214.98021L472.7469 214.98021L472.7469 216.18333L471.54376 216.18333ZM473.95 211.94896Q473.95 210.41771 474.2625 209.49583Q474.575 208.55833 475.1844 208.05833Q475.8094 207.55833 476.7469 207.55833Q477.4344 207.55833 477.95 207.83958Q478.48126 208.12083 478.825 208.65208Q479.16876 209.16771 479.35626 209.91771Q479.54376 210.66771 479.54376 211.94896Q479.54376 213.46458 479.23126 214.38646Q478.9344 215.30833 478.3094 215.82396Q477.7 216.32396 476.7469 216.32396Q475.5125 216.32396 474.79376 215.43333Q473.95 214.37083 473.95 211.94896ZM475.02814 211.94896Q475.02814 214.05833 475.52814 214.76146Q476.02814 215.46458 476.7469 215.46458Q477.48126 215.46458 477.96564 214.76146Q478.46564 214.05833 478.46564 211.94896Q478.46564 209.82396 477.96564 209.13646Q477.48126 208.43333 476.73126 208.43333Q476.0125 208.43333 475.575 209.04271Q475.02814 209.82396 475.02814 211.94896ZM481.15314 209.65208Q481.15314 208.73021 481.60626 208.08958Q482.075 207.44896 482.95 207.44896Q483.7625 207.44896 484.29376 208.02708Q484.825 208.60521 484.825 209.71458Q484.825 210.80833 484.27814 211.40208Q483.7469 211.98021 482.96564 211.98021Q482.1844 211.98021 481.66876 211.40208Q481.15314 210.82396 481.15314 209.65208ZM482.98126 208.16771Q482.59064 208.16771 482.325 208.51146Q482.075 208.85521 482.075 209.76146Q482.075 210.58958 482.325 210.93333Q482.59064 211.26146 482.98126 211.26146Q483.3875 211.26146 483.6375 210.91771Q483.90314 210.57396 483.90314 209.68333Q483.90314 208.83958 483.6375 208.51146Q483.3719 208.16771 482.98126 208.16771ZM482.98126 216.49583L487.6844 207.44896L488.54376 207.44896L483.85626 216.49583L482.98126 216.49583ZM486.7 214.16771Q486.7 213.24583 487.15314 212.60521Q487.6219 211.96458 488.5125 211.96458Q489.325 211.96458 489.85626 212.54271Q490.3875 213.10521 490.3875 214.23021Q490.3875 215.32396 489.84064 215.91771Q489.3094 216.49583 488.5125 216.49583Q487.7469 216.49583 487.21564 215.91771Q486.7 215.33958 486.7 214.16771ZM488.54376 212.68333Q488.1375 212.68333 487.8719 213.02708Q487.6219 213.37083 487.6219 214.27708Q487.6219 215.08958 487.8875 215.43333Q488.15314 215.77708 488.54376 215.77708Q488.9344 215.77708 489.2 215.43333Q489.46564 215.08958 489.46564 214.18333Q489.46564 213.35521 489.2 213.02708Q488.9344 212.68333 488.54376 212.68333Z" fill-rule="nonzero"/><path stroke="#757575" stroke-width="1.0" stroke-linecap="butt" d="M491.45 203.68333L409.76666 203.68333L396.32834 203.68333" fill-rule="nonzero"/><path fill="#9e9e9e" d="M398.32834 203.68333C398.32834 202.57877 397.4329 201.68333 396.32834 201.68333C395.22375 201.68333 394.32834 202.57877 394.32834 203.68333C394.32834 204.7879 395.22375 205.68333 396.32834 205.68333C397.4329 205.68333 398.32834 204.7879 398.32834 203.68333" fill-rule="nonzero"/><path fill="#757575" d="M20.190624 37.55L20.190624 23.2375L29.846874 23.2375L29.846874 24.925L22.08125 24.925L22.08125 29.3625L28.8 29.3625L28.8 31.05L22.08125 31.05L22.08125 37.55L20.190624 37.55ZM38.659374 37.55L38.659374 36.01875Q37.45625 37.784374 35.378124 37.784374Q34.45625 37.784374 33.659374 37.440624Q32.8625 37.08125 32.471874 36.55Q32.096874 36.01875 31.940624 35.2375Q31.83125 34.721874 31.83125 33.596874L31.83125 27.175L33.58125 27.175L33.58125 32.925Q33.58125 34.3 33.690624 34.784374Q33.8625 35.471874 34.39375 35.878124Q34.940624 36.26875 35.721874 36.26875Q36.51875 36.26875 37.20625 35.8625Q37.909374 35.45625 38.190624 34.76875Q38.4875 34.065624 38.4875 32.7375L38.4875 27.175L40.2375 27.175L40.2375 37.55L38.659374 37.55ZM41.8625 37.55L41.8625 27.175L43.45625 27.175L43.45625 28.659374Q44.596874 26.940624 46.753124 26.940624Q47.690624 26.940624 48.471874 27.284374Q49.26875 27.6125 49.659374 28.159374Q50.05 28.70625 50.20625 29.45625Q50.3 29.95625 50.3 31.175L50.3 37.55L48.534374 37.55L48.534374 31.2375Q48.534374 30.159374 48.33125 29.628124Q48.128124 29.096874 47.596874 28.784374Q47.08125 28.471874 46.378124 28.471874Q45.253124 28.471874 44.440624 29.190624Q43.628124 29.89375 43.628124 31.878124L43.628124 37.55L41.8625 37.55ZM58.596874 37.55L58.596874 36.2375Q57.6125 37.784374 55.690624 37.784374Q54.45625 37.784374 53.409374 37.096874Q52.378124 36.409374 51.8 35.190624Q51.2375 33.971874 51.2375 32.378124Q51.2375 30.815624 51.753124 29.55Q52.26875 28.284374 53.3 27.6125Q54.346874 26.940624 55.6125 26.940624Q56.55 26.940624 57.284374 27.346874Q58.01875 27.7375 58.4875 28.3625L58.4875 23.2375L60.221874 23.2375L60.221874 37.55L58.596874 37.55ZM53.034374 32.378124Q53.034374 34.3625 53.878124 35.346874Q54.721874 36.33125 55.8625 36.33125Q57.01875 36.33125 57.815624 35.39375Q58.628124 34.45625 58.628124 32.51875Q58.628124 30.39375 57.8 29.39375Q56.9875 28.39375 55.784374 28.39375Q54.6125 28.39375 53.815624 29.3625Q53.034374 30.315624 53.034374 32.378124ZM67.51875 37.55L73.01875 23.2375L75.06563 23.2375L80.925 37.55L78.76875 37.55L77.09688 33.20625L71.1125 33.20625L69.53438 37.55L67.51875 37.55ZM71.65938 31.675L76.50313 31.675L75.01875 27.70625Q74.33125 25.89375 74.00313 24.7375Q73.72188 26.1125 73.22188 27.471874L71.65938 31.675ZM81.83125 37.55L81.83125 23.2375L83.58125 23.2375L83.58125 37.55L81.83125 37.55ZM85.83125 37.55L85.83125 23.2375L87.58125 23.2375L87.58125 37.55L85.83125 37.55ZM89.22188 32.3625Q89.22188 29.4875 90.81563 28.096874Q92.15938 26.940624 94.08125 26.940624Q96.22188 26.940624 97.56563 28.346874Q98.925 29.753124 98.925 32.221874Q98.925 34.221874 98.33125 35.378124Q97.7375 36.51875 96.58125 37.159374Q95.44063 37.784374 94.08125 37.784374Q91.89375 37.784374 90.55 36.39375Q89.22188 34.9875 89.22188 32.3625ZM91.01875 32.3625Q91.01875 34.3625 91.87813 35.346874Q92.75313 36.33125 94.08125 36.33125Q95.39375 36.33125 96.25313 35.346874Q97.12813 34.346874 97.12813 32.3Q97.12813 30.378124 96.25313 29.39375Q95.37813 28.39375 94.08125 28.39375Q92.75313 28.39375 91.87813 29.39375Q91.01875 30.378124 91.01875 32.3625ZM107.64375 33.753124L109.3625 33.971874Q109.08125 35.76875 107.90938 36.784374Q106.75313 37.784374 105.05 37.784374Q102.925 37.784374 101.62813 36.39375Q100.33125 35.003124 100.33125 32.409374Q100.33125 30.721874 100.87813 29.471874Q101.44063 28.20625 102.58125 27.58125Q103.72188 26.940624 105.06563 26.940624Q106.75313 26.940624 107.81563 27.8Q108.89375 28.659374 109.20625 30.221874L107.4875 30.4875Q107.25313 29.440624 106.62813 28.925Q106.00313 28.39375 105.12813 28.39375Q103.8 28.39375 102.97188 29.346874Q102.14375 30.3 102.14375 32.346874Q102.14375 34.440624 102.94063 35.39375Q103.7375 36.33125 105.03438 36.33125Q106.06563 36.33125 106.75313 35.70625Q107.45625 35.065624 107.64375 33.753124ZM117.64375 36.26875Q116.65938 37.096874 115.75313 37.440624Q114.84688 37.784374 113.81563 37.784374Q112.1125 37.784374 111.19063 36.95625Q110.26875 36.1125 110.26875 34.815624Q110.26875 34.05 110.6125 33.425Q110.97188 32.8 111.53438 32.425Q112.09688 32.034374 112.8 31.83125Q113.31563 31.70625 114.3625 31.565624Q116.4875 31.315624 117.4875 30.971874Q117.50313 30.6125 117.50313 30.503124Q117.50313 29.440624 117.00313 28.9875Q116.33125 28.39375 115.00313 28.39375Q113.75313 28.39375 113.15938 28.83125Q112.58125 29.26875 112.3 30.378124L110.58125 30.14375Q110.81563 29.034374 111.34688 28.3625Q111.87813 27.675 112.89375 27.315624Q113.90938 26.940624 115.25313 26.940624Q116.58125 26.940624 117.40938 27.253124Q118.2375 27.565624 118.62813 28.05Q119.01875 28.51875 119.175 29.2375Q119.26875 29.690624 119.26875 30.8625L119.26875 33.20625Q119.26875 35.659374 119.37813 36.315624Q119.4875 36.95625 119.83125 37.55L117.9875 37.55Q117.72188 37.003124 117.64375 36.26875ZM117.4875 32.346874Q116.53438 32.7375 114.6125 33.003124Q113.53438 33.159374 113.08125 33.3625Q112.64375 33.55 112.39375 33.925Q112.14375 34.3 112.14375 34.76875Q112.14375 35.471874 112.675 35.940624Q113.20625 36.409374 114.2375 36.409374Q115.25313 36.409374 116.03438 35.971874Q116.83125 35.51875 117.20625 34.753124Q117.4875 34.14375 117.4875 32.9875L117.4875 32.346874ZM125.70625 35.971874L125.95625 37.534374Q125.22188 37.690624 124.62813 37.690624Q123.675 37.690624 123.14375 37.39375Q122.62813 37.08125 122.40938 36.596874Q122.19063 36.096874 122.19063 34.51875L122.19063 28.55L120.90938 28.55L120.90938 27.175L122.19063 27.175L122.19063 24.6125L123.94063 23.55L123.94063 27.175L125.70625 27.175L125.70625 28.55L123.94063 28.55L123.94063 34.6125Q123.94063 35.3625 124.03438 35.58125Q124.12813 35.784374 124.33125 35.925Q124.55 36.05 124.94063 36.05Q125.22188 36.05 125.70625 35.971874ZM127.87813 25.253124L127.87813 23.2375L129.64375 23.2375L129.64375 25.253124L127.87813 25.253124ZM127.87813 37.55L127.87813 27.175L129.64375 27.175L129.64375 37.55L127.87813 37.55ZM131.22188 32.3625Q131.22188 29.4875 132.81563 28.096874Q134.15938 26.940624 136.08125 26.940624Q138.22188 26.940624 139.56563 28.346874Q140.925 29.753124 140.925 32.221874Q140.925 34.221874 140.33125 35.378124Q139.7375 36.51875 138.58125 37.159374Q137.44063 37.784374 136.08125 37.784374Q133.89375 37.784374 132.55 36.39375Q131.22188 34.9875 131.22188 32.3625ZM133.01875 32.3625Q133.01875 34.3625 133.87813 35.346874Q134.75313 36.33125 136.08125 36.33125Q137.39375 36.33125 138.25313 35.346874Q139.12813 34.346874 139.12813 32.3Q139.12813 30.378124 138.25313 29.39375Q137.37813 28.39375 136.08125 28.39375Q134.75313 28.39375 133.87813 29.39375Q133.01875 30.378124 133.01875 32.3625ZM142.8625 37.55L142.8625 27.175L144.45625 27.175L144.45625 28.659374Q145.59688 26.940624 147.75313 26.940624Q148.69063 26.940624 149.47188 27.284374Q150.26875 27.6125 150.65938 28.159374Q151.05 28.70625 151.20625 29.45625Q151.3 29.95625 151.3 31.175L151.3 37.55L149.53438 37.55L149.53438 31.2375Q149.53438 30.159374 149.33125 29.628124Q149.12813 29.096874 148.59688 28.784374Q148.08125 28.471874 147.37813 28.471874Q146.25313 28.471874 145.44063 29.190624Q144.62813 29.89375 144.62813 31.878124L144.62813 37.55L142.8625 37.55Z" fill-rule="nonzero"/></svg>