<?xml version="1.0" encoding="UTF-8"?>
<svg xmlns="http://www.w3.org/2000/svg" xmlns:xlink="http://www.w3.org/1999/xlink" width="500" height="500" viewBox="0 0 55 55">
  <polygon fill="#27ff47" points="
      34,5.7735 34,17.3205 44,23.0940 54,17.3205 54,5.7735 44,0 34,5.7735
      37.8888,8.0187 44,4.4904 50.1111,8.0187 50.1111,15.0753 44,18.6036 37.8888,15.0753 37.8888,8.0187
  "/>
  <polygon fill="#42f4ff" points="
      0,11.6602 0,28.9807 15,37.6410 30,28.9802 30,11.6602 15,3 0,11.6602
      3.8888,13.9054 15,7.4904 26.1120,13.9054 26.1120,26.7350 15,33.1506 3.8888,26.7350 3.8888,13.9054
  "/>
  <polygon fill="#ffc000" points="
      15,28.6602 15,45.9807 30,54.6410 45,45.9802 45,28.6602 30,20 15,28.6602
      18.8888,30.9054 30,24.4904 41.1120,30.9054 41.1120,43.7350 30,50.1506 18.8888,43.7350 18.8888,30.9054
  "/>
</svg>
